<svg width="40" height="40" viewBox="0 0 40 40" fill="none" xmlns="http://www.w3.org/2000/svg">
<g clip-path="url(#clip0_86_1464)">
<mask id="mask0_86_1464" style="mask-type:luminance" maskUnits="userSpaceOnUse" x="0" y="0" width="40" height="40">
<path d="M40 0H0V40H40V0Z" fill="white"/>
</mask>
<g mask="url(#mask0_86_1464)">
<path d="M20 40C31.0457 40 40 31.0457 40 20C40 8.95431 31.0457 0 20 0C8.95431 0 0 8.95431 0 20C0 31.0457 8.95431 40 20 40Z" fill="#8DC351"/>
<path d="M29.3816 20.8312L29.3705 20.8105L29.3686 20.8071C29.3618 20.7863 29.3568 20.7645 29.3491 20.742L29.3482 20.7403L29.3472 20.7385L29.3463 20.7367L29.3454 20.735L29.3444 20.7333L29.3435 20.7315L29.3416 20.7281C29.1068 19.943 28.6414 19.2466 28.0057 18.7295L28.0047 18.7278C27.986 18.7134 27.9663 18.6974 27.9474 18.6831L27.9214 18.6638L27.9026 18.6495L27.8946 18.6427L27.8766 18.6302L27.8685 18.6234L27.8506 18.6108L27.8425 18.6041L27.8237 18.5898L27.8139 18.584L27.7951 18.5696L27.7853 18.5638L27.765 18.5504L27.7552 18.5444L27.7433 18.5264L27.7326 18.5189L27.7124 18.5054L27.7017 18.4979L27.6815 18.4844L27.6707 18.4768L27.6506 18.4634L27.6398 18.4558L27.6184 18.4407L27.6077 18.4332L27.5845 18.419L27.5737 18.4114L27.5506 18.3973L27.5398 18.3897L27.5167 18.3754L27.506 18.3679L27.4828 18.3537L27.4704 18.347L27.4472 18.3327L27.4347 18.326L27.4097 18.3125L27.3973 18.3058L27.3715 18.2909L27.359 18.2841L27.3331 18.2692L27.3207 18.2624L27.2948 18.2474L27.2813 18.2391L27.2555 18.2242L27.242 18.2158L27.2145 18.2017L27.2009 18.1934L27.1734 18.1793L27.1547 18.1694L27.1538 18.1676C27.1404 18.1593 27.1263 18.1535 27.1129 18.1452C26.5411 17.8513 25.9237 17.6562 25.2867 17.5682C25.4654 17.3762 25.6289 17.1707 25.776 16.9536L25.7995 16.9188L25.8012 16.9179L25.812 16.9009L25.8263 16.8777L25.8338 16.8671L25.848 16.8439L25.8556 16.8332L25.8697 16.81L25.8773 16.7993L25.8916 16.7761L25.8991 16.7654L25.9133 16.7422L25.9208 16.7315L25.9333 16.7092L25.9408 16.6985L25.9533 16.6762L25.9591 16.6664L25.9717 16.6441L25.9775 16.6343L25.9899 16.6119L25.9957 16.6021L26.0065 16.5807L26.0123 16.5709L26.023 16.5495L26.0288 16.5397L26.0396 16.5184L26.0455 16.5085L26.057 16.4889L26.0629 16.4791L26.0746 16.4595L26.0804 16.4496L26.0904 16.431L26.0962 16.4212L26.1062 16.4025L26.1103 16.3936L26.1203 16.375L26.1244 16.3661L26.1344 16.3474L26.1385 16.3385L26.1485 16.3199L26.1526 16.311L26.1607 16.2932L26.1648 16.2843L26.1731 16.2665L26.1772 16.2576L26.1854 16.2398L26.1896 16.2309L26.1986 16.2107L26.2109 16.1838C26.2199 16.1635 26.2272 16.1439 26.2362 16.1232L26.2379 16.1223C26.512 15.4467 26.5763 14.7044 26.4223 13.9918L26.4214 13.9901L26.4195 13.9866L26.4186 13.9849L26.4177 13.9832L26.4167 13.9814L26.4157 13.9796L26.4147 13.9779L26.4138 13.9762C26.4097 13.9559 26.4057 13.9362 26.3998 13.917V13.9132L26.3989 13.9114L26.3979 13.9096L26.3896 13.8942C26.3836 13.8664 26.3774 13.8385 26.3687 13.8099C26.3626 13.7821 26.3538 13.7534 26.346 13.7265L26.3358 13.7075L26.3339 13.7042C26.3281 13.6851 26.3223 13.666 26.3165 13.6469L26.3155 13.6452L26.3146 13.6434L26.3137 13.6416L26.3127 13.6399L26.3117 13.6381L26.3107 13.6364L26.3099 13.6346C26.1015 12.9359 25.6873 12.3163 25.1216 11.8563L25.1207 11.8545C25.1046 11.8411 25.0867 11.8284 25.0705 11.8149L25.0482 11.7981L25.0302 11.7854L25.0222 11.7787L25.0069 11.767L24.9988 11.7603L24.9836 11.7484L24.9756 11.7417L24.9585 11.7308L24.9504 11.7241L24.9326 11.7115L24.9245 11.7048L24.9066 11.6922L24.8985 11.6854L24.8806 11.6728L24.8707 11.667L24.8528 11.6544L24.8429 11.6485L24.825 11.6359L24.8152 11.6301L24.7957 11.6184L24.7857 11.6125L24.7662 11.6009L24.7564 11.5951L24.7367 11.5834L24.7269 11.5775L24.7073 11.5659L24.6975 11.56L24.6769 11.5465L24.6671 11.5407L24.6466 11.5272L24.6367 11.5214L24.6144 11.5089L24.6046 11.503L24.5824 11.4905L24.5717 11.483L24.5494 11.4705L24.5387 11.463L24.5164 11.4505L24.5057 11.443L24.4826 11.4288L24.47 11.4221L24.4463 11.4074L24.4338 11.4005L24.4089 11.3871L24.3965 11.3804L24.3715 11.3669L24.3537 11.3587L24.3527 11.3569L24.3154 11.3367C23.2232 10.7691 21.8357 10.5982 20.4396 10.9564L20.0764 11.0495L19.1578 7.47266L17.0292 8.01828L17.9447 11.5811L16.2417 12.0203L15.3256 8.46893L13.1969 9.01456L14.1124 12.5774L9.72266 13.7069L10.3067 15.977L12.0756 15.5227C12.3567 15.4503 12.655 15.4924 12.9051 15.6399C13.1551 15.7874 13.3363 16.0283 13.4087 16.3094L13.4093 16.3115L15.8644 25.8646C15.9125 26.0523 15.8842 26.2513 15.7857 26.418C15.6872 26.5848 15.5266 26.7057 15.339 26.7542L13.7891 27.1529L13.8802 29.8527L18.2647 28.726L19.1921 32.2823L21.3197 31.7348L20.4035 28.1704L22.1063 27.7337L23.0227 31.2982L25.1503 30.7507L24.2307 27.1724C24.5912 27.0781 24.9014 26.998 25.1159 26.9425C26.6892 26.5379 27.9615 25.6155 28.7314 24.4653L28.7574 24.4269L28.7591 24.426L28.7717 24.408L28.7884 24.3811L28.7967 24.3676L28.8135 24.3406L28.8218 24.3272L28.8367 24.3014L28.8451 24.2879L28.8601 24.262L28.8668 24.2495L28.8817 24.2236L28.8885 24.2112L28.9035 24.1854L28.9102 24.1729L28.9237 24.148L28.9304 24.1354L28.9438 24.1105L28.9507 24.0981L28.9648 24.0749L28.9716 24.0624L28.9857 24.0393L28.9925 24.0268L29.0049 24.0045L29.0117 23.9921L29.0242 23.9698L29.0309 23.9574L29.0434 23.9352L29.0483 23.9236L29.0607 23.9014L29.0657 23.8899L29.0764 23.8685L29.0822 23.8587L29.0929 23.8374L29.0988 23.8275L29.1095 23.8062L29.1154 23.7964L29.1261 23.775L29.1319 23.7652L29.1427 23.7438L29.1486 23.734L29.1592 23.7126L29.1651 23.7027L29.1741 23.6825L29.18 23.6727L29.1889 23.6525L29.193 23.6436L29.2028 23.6205L29.2164 23.5913C29.2262 23.5683 29.2366 23.5469 29.245 23.5247L29.2457 23.5221C29.5537 22.7623 29.6262 21.9274 29.4537 21.1258L29.4528 21.124L29.4518 21.1223L29.4509 21.1205L29.4499 21.1188L29.449 21.117L29.4481 21.1153L29.4471 21.1135L29.4462 21.1117C29.4411 21.09 29.4361 21.0684 29.4311 21.0465V21.0422L29.4302 21.0404L29.4292 21.0387L29.4283 21.0369L29.4273 21.0352L29.4264 21.0334L29.4255 21.0316L29.4245 21.0299L29.4236 21.0282L29.4227 21.0264L29.4217 21.0246L29.4207 21.0229L29.4197 21.0212L29.4188 21.0194L29.4151 21.0126C29.4072 20.9814 29.401 20.9493 29.3913 20.9188C29.3864 20.8898 29.3831 20.8605 29.3816 20.8312ZM16.8752 14.4405C17.2383 14.3473 18.7398 13.9702 19.2349 13.8414C20.022 13.64 20.7977 13.7182 21.4033 14.0099L21.4235 14.0189L21.4324 14.023L21.4448 14.0298L21.451 14.0331L21.4635 14.0398L21.4697 14.0431L21.4822 14.0498L21.4884 14.0532L21.5008 14.0599L21.507 14.0632L21.5195 14.0699L21.5257 14.0732L21.5381 14.08L21.5444 14.0833L21.5568 14.09L21.563 14.0933L21.5755 14.1L21.5817 14.1034L21.5941 14.1101L21.6003 14.1134L21.611 14.1209L21.6172 14.1242L21.6279 14.1317L21.6341 14.1351L21.6448 14.1426L21.651 14.1459L21.6608 14.1517L21.6671 14.1551L21.6769 14.1609L21.6831 14.1643L21.6929 14.1701L21.6991 14.1734L21.709 14.1793L21.7152 14.1825L21.725 14.1884L21.7296 14.1926L21.7394 14.1985L21.7429 14.201L21.7527 14.2069L21.7563 14.2094L21.7662 14.2152L21.7697 14.2177L21.7796 14.2235L21.7831 14.2261L21.7912 14.2328L21.7948 14.2353L21.8047 14.2412L21.8181 14.2495C21.8279 14.2554 21.8369 14.2638 21.8467 14.2697C22.1567 14.5037 22.3846 14.8301 22.4973 15.2017L22.5001 15.2069C22.5029 15.2164 22.5068 15.2277 22.5097 15.2373L22.5107 15.2391L22.5162 15.2494C22.5202 15.265 22.525 15.278 22.5289 15.2936C22.5334 15.3095 22.5362 15.3259 22.5375 15.3424L22.543 15.3527L22.544 15.3544C22.5455 15.3651 22.5481 15.3756 22.5519 15.3857L22.5547 15.3909C22.6343 15.7707 22.5919 16.1661 22.4335 16.5204L22.4195 16.5524L22.4121 16.5674L22.4062 16.5773L22.4047 16.5825L22.4005 16.5914L22.3989 16.5968L22.393 16.6066L22.3914 16.6119L22.3856 16.6218L22.3839 16.6271L22.3781 16.6369L22.3765 16.6423L22.3706 16.6521L22.369 16.6574L22.3631 16.6673L22.3615 16.6725L22.3557 16.6824L22.3524 16.6886L22.3465 16.6984L22.3432 16.7046L22.3374 16.7144L22.334 16.7206L22.3282 16.7305L22.3249 16.7367L22.3174 16.7474L22.314 16.7536L22.3065 16.7644L22.3032 16.7705L22.2957 16.7813L22.2923 16.7874L22.2847 16.7981L22.2815 16.8044L22.2739 16.815L22.2707 16.8213L22.2631 16.8319L22.2598 16.8382L22.2523 16.8488L22.2489 16.8551L22.2414 16.8657L22.2381 16.872L22.2288 16.8836L22.2255 16.8898L22.2162 16.9014L22.2129 16.9076L22.2037 16.9194L22.2003 16.9255L22.191 16.9372L22.1843 16.9453L22.1717 16.9632C21.7802 17.5116 21.1387 17.9547 20.3517 18.1562C19.8556 18.2833 18.3577 18.676 17.9949 18.7692L16.8752 14.4405ZM25.1951 21.7643L25.2007 21.7746L25.2017 21.7764C25.2037 21.7885 25.2067 21.7981 25.2088 21.81L25.2097 21.8118L25.2107 21.8135L25.2117 21.8153L25.2126 21.8171C25.2966 22.236 25.2362 22.6711 25.0414 23.0514L25.0224 23.0861L25.0132 23.1021L25.0065 23.1145L25.0032 23.1207L24.9973 23.1306L24.994 23.1368L24.9881 23.1466L24.9848 23.1528L24.9773 23.1635L24.974 23.1697L24.9665 23.1804L24.9631 23.1866L24.9556 23.1974L24.9523 23.2035L24.9447 23.2143L24.9415 23.2204L24.9339 23.2312L24.9307 23.2374L24.9231 23.2481L24.9197 23.2543L24.9122 23.265L24.9089 23.2712L24.9014 23.2819L24.8981 23.2881L24.8906 23.2988L24.8872 23.305L24.8779 23.3166L24.8747 23.3228L24.8654 23.3345L24.862 23.3407L24.8537 23.3542L24.8504 23.3604L24.842 23.3738L24.8387 23.38L24.8304 23.3935L24.8253 23.4006L24.8169 23.4141L24.8119 23.4213L24.8018 23.4355L24.7967 23.4427L24.7867 23.457L24.7816 23.4641L24.7715 23.4784L24.7665 23.4855L24.7563 23.4998L24.7512 23.5069L24.7411 23.5213L24.7327 23.5303L24.7166 23.55C24.2412 24.1571 23.4745 24.6564 22.5432 24.8954C21.9558 25.0471 20.1813 25.5112 19.7495 25.6214L18.5414 20.9206C18.9725 20.8086 20.7517 20.3619 21.339 20.2103C22.2704 19.9712 23.1847 20.039 23.8914 20.3408L23.9145 20.3506L23.926 20.3555L23.9428 20.3623L23.9507 20.3646L23.9658 20.3721L23.9738 20.3744L23.9889 20.3818L23.9968 20.3842L24.0119 20.3916L24.0181 20.3949L24.0331 20.4024L24.0394 20.4056L24.0545 20.413L24.0607 20.4164L24.0757 20.4237L24.0819 20.427L24.0944 20.4338L24.1006 20.4371L24.113 20.4438L24.1192 20.4471L24.1317 20.4538L24.1379 20.4572L24.1504 20.4639L24.1566 20.4672L24.169 20.4739L24.1752 20.4772L24.1877 20.484L24.1938 20.4873L24.2064 20.494L24.2126 20.4973L24.225 20.504L24.2312 20.5074L24.2437 20.5141L24.2498 20.5174L24.2606 20.5249L24.2667 20.5282L24.2775 20.5357L24.2837 20.5391L24.2944 20.5466L24.3006 20.5499L24.3113 20.5574L24.3175 20.5607L24.3282 20.5683L24.3344 20.5716L24.3442 20.5774L24.3504 20.5807L24.3611 20.5883L24.3754 20.5984C24.3861 20.6059 24.3986 20.6126 24.4091 20.6202C24.7627 20.8599 25.0249 21.212 25.1536 21.6194L25.1573 21.6261C25.1611 21.6374 25.164 21.6469 25.1678 21.6582L25.1688 21.6599L25.1744 21.6702C25.1784 21.6858 25.1824 21.7014 25.1873 21.7188C25.1959 21.7226 25.1974 21.7419 25.1946 21.7655L25.1951 21.7643Z" fill="white"/>
</g>
</g>
<defs>
<clipPath id="clip0_86_1464">
<rect width="40" height="40" fill="white"/>
</clipPath>
</defs>
</svg>
