<svg width="40" height="40" viewBox="0 0 40 40" fill="none" xmlns="http://www.w3.org/2000/svg">
<g clip-path="url(#clip0_86_1412)">
<path d="M40 20C40 8.9543 31.0457 0 20 0C8.9543 0 0 8.9543 0 20C0 31.0457 8.9543 40 20 40C31.0457 40 40 31.0457 40 20Z" fill="#F3BA2F"/>
<path d="M14.703 17.8236L19.9994 12.5274L25.2985 17.8264L28.3803 14.7446L19.9994 6.36328L11.6214 14.7416L14.703 17.8236ZM6.36328 19.9992L9.44519 16.9173L12.5269 19.999L9.44501 23.0809L6.36328 19.9992ZM14.703 22.1756L19.9994 27.4719L25.2984 22.1732L28.3817 25.2534L28.3803 25.255L19.9994 33.636L11.6211 25.2578L11.6167 25.2535L14.703 22.1756ZM27.4724 20.0009L30.5543 16.919L33.636 20.0007L30.5541 23.0826L27.4724 20.0009Z" fill="white"/>
<path d="M22.7246 19.9983H22.7256L19.9997 17.2725L17.9852 19.2869L17.7536 19.5185L17.2763 19.9959L17.2725 19.9996L17.2763 20.0036L19.9997 22.727L22.7256 20.0012L22.727 19.9996L22.7246 19.9983Z" fill="white"/>
</g>
<defs>
<clipPath id="clip0_86_1412">
<rect width="40" height="40" fill="white"/>
</clipPath>
</defs>
</svg>
