<svg width="40" height="40" viewBox="0 0 40 40" fill="none" xmlns="http://www.w3.org/2000/svg">
<g clip-path="url(#clip0_86_1405)">
<mask id="mask0_86_1405" style="mask-type:luminance" maskUnits="userSpaceOnUse" x="0" y="0" width="40" height="40">
<path d="M40 0H0V40H40V0Z" fill="white"/>
</mask>
<g mask="url(#mask0_86_1405)">
<path d="M39.3977 24.8395C36.7282 35.5526 25.8742 42.073 15.1577 39.3995C4.44138 36.7258 -2.07602 25.8773 0.597772 15.163C3.27158 4.44884 14.1202 -2.07456 24.8342 0.599441C35.5482 3.27344 42.0716 14.1226 39.3977 24.8395Z" fill="#F7931A"/>
<path d="M28.8203 17.1507C29.2179 14.4894 27.1916 13.0585 24.4203 12.1042L25.3203 8.49915L23.1251 7.95235L22.2483 11.4625C21.6719 11.3189 21.0795 11.1825 20.4907 11.0489L21.3707 7.51555L19.1777 6.96875L18.2803 10.5724L13.8539 9.47591L13.2699 11.8202C13.2699 11.8202 14.8982 12.1934 14.8639 12.2165C15.7527 12.4385 15.9139 13.0266 15.8867 13.4929L13.4239 23.3689C13.315 23.6389 13.0395 24.0437 12.4182 23.8889C12.4402 23.9209 10.823 23.4889 10.823 23.4889L9.7334 26.0047L14.1535 27.1207L13.245 30.7677L15.437 31.3146L16.337 27.7067C16.937 27.8692 17.517 28.0192 18.0855 28.1604L17.189 31.7514L19.3839 32.2982L20.2923 28.6582C24.0349 29.3662 26.8493 29.0806 28.0323 25.6982C28.9868 22.9732 27.9856 21.4012 26.0163 20.3756C27.4503 20.0436 28.5303 19.1007 28.8186 17.1522L28.8203 17.1507ZM23.8043 24.1826C23.1243 26.9076 18.5373 25.4349 17.0489 25.0649L18.2541 20.2339C19.7417 20.6052 24.5111 21.3407 23.8043 24.1826ZM24.4851 17.1122C23.8663 19.5922 20.0469 18.3322 18.8073 18.0229L19.8985 13.6402C21.1385 13.9497 25.1288 14.5262 24.4835 17.1119" fill="white"/>
</g>
</g>
<defs>
<clipPath id="clip0_86_1405">
<rect width="40" height="40" fill="white"/>
</clipPath>
</defs>
</svg>
