<svg width="40" height="40" viewBox="0 0 40 40" fill="none" xmlns="http://www.w3.org/2000/svg">
<g clip-path="url(#clip0_86_1667)">
<path d="M20 0C31.0467 0 40 8.95509 40 20C40 31.0467 31.0467 40 20 40C8.95509 40 0 31.0458 0 20C0 8.95509 8.95509 0 20 0Z" fill="#F5AC37"/>
<path d="M20.7305 21.4025H28.3302C28.4922 21.4025 28.5686 21.4025 28.5804 21.1901C28.6425 20.417 28.6425 19.6394 28.5804 18.8654C28.5804 18.7151 28.5056 18.653 28.3427 18.653H13.2181C13.0309 18.653 12.9805 18.7151 12.9805 18.8905V21.1154C12.9805 21.4025 12.9805 21.4025 13.2802 21.4025H20.7305ZM27.7316 16.0528C27.7533 15.9962 27.7533 15.9341 27.7316 15.8783C27.6047 15.6019 27.4545 15.3383 27.2798 15.0907C27.0171 14.6677 26.7075 14.278 26.3546 13.9279C26.1882 13.7165 25.9956 13.5265 25.7796 13.3655C24.6977 12.4447 23.4116 11.7931 22.0292 11.4655C21.3317 11.3089 20.6189 11.2342 19.9043 11.2405H13.192C13.0048 11.2405 12.9796 11.3152 12.9796 11.4781V15.9152C12.9796 16.1024 12.9796 16.1527 13.2172 16.1527H27.6416C27.6416 16.1527 27.7667 16.1275 27.7919 16.0528H27.7307H27.7316ZM27.7316 24.0026C27.5193 23.9793 27.3051 23.9793 27.0926 24.0026H13.2307C13.0435 24.0026 12.9805 24.0026 12.9805 24.2528V28.5909C12.9805 28.7907 12.9805 28.8411 13.2307 28.8411H19.6306C19.9366 28.8645 20.2426 28.8429 20.5424 28.779C21.4712 28.7124 22.3847 28.5108 23.2559 28.1786C23.5727 28.0689 23.8787 27.9258 24.1676 27.7539H24.2549C25.7553 26.9735 26.9738 25.7477 27.7425 24.2429C27.7425 24.2429 27.8297 24.0539 27.7316 24.0044V24.0026ZM10.4685 31.0902V31.0155V28.1031V27.1157V24.1782C10.4685 24.0153 10.4685 23.9909 10.2688 23.9909H7.55616C7.40586 23.9909 7.34375 23.9909 7.34375 23.7911V21.416H10.2436C10.4056 21.416 10.4685 21.416 10.4685 21.2036V18.8537C10.4685 18.7034 10.4685 18.6665 10.2688 18.6665H7.55616C7.40586 18.6665 7.34375 18.6665 7.34375 18.4667V16.2671C7.34375 16.1294 7.34376 16.0925 7.54356 16.0925H10.231C10.4182 16.0925 10.4685 16.0925 10.4685 15.8548V9.11736C10.4685 8.91759 10.4685 8.86719 10.7188 8.86719H20.0933C20.7737 8.89419 21.4496 8.96889 22.1183 9.09218C23.4962 9.34691 24.8201 9.83918 26.0306 10.5421C26.8335 11.0146 27.5724 11.5852 28.2303 12.2422C28.7253 12.7561 29.1716 13.3124 29.5676 13.9045C29.961 14.5048 30.2877 15.1465 30.5442 15.8171C30.5757 15.9916 30.7431 16.1095 30.9177 16.0798H33.1551C33.4422 16.0798 33.4422 16.0798 33.4548 16.3553V18.4055C33.4548 18.6053 33.3801 18.6557 33.1794 18.6557H31.4541C31.2795 18.6557 31.2291 18.6557 31.2417 18.8807C31.3101 19.6421 31.3101 20.4062 31.2417 21.1676C31.2417 21.38 31.2417 21.4052 31.4802 21.4052H33.4539C33.5412 21.5177 33.4539 21.6302 33.4539 21.7436C33.4666 21.8885 33.4666 22.0352 33.4539 22.1801V23.693C33.4539 23.9054 33.3918 23.9684 33.2037 23.9684H30.8412C30.6765 23.9369 30.5163 24.0423 30.4785 24.206C29.916 25.6685 29.016 26.9799 27.8532 28.0311C27.4284 28.4135 26.9819 28.7735 26.5157 29.1057C26.0154 29.3937 25.5285 29.6934 25.0155 29.931C24.0713 30.3558 23.0813 30.669 22.0652 30.8679C21.1004 31.0407 20.1221 31.119 19.1402 31.1055H10.465V31.0929L10.4685 31.0902Z" fill="#FEFEFD"/>
</g>
<defs>
<clipPath id="clip0_86_1667">
<rect width="40" height="40" fill="white"/>
</clipPath>
</defs>
</svg>
