<svg width="40" height="40" viewBox="0 0 40 40" fill="none" xmlns="http://www.w3.org/2000/svg">
<g clip-path="url(#clip0_86_1507)">
<mask id="mask0_86_1507" style="mask-type:luminance" maskUnits="userSpaceOnUse" x="0" y="0" width="40" height="40">
<path d="M40 0H0V40H40V0Z" fill="white"/>
</mask>
<g mask="url(#mask0_86_1507)">
<path d="M20 40C31.0457 40 40 31.0457 40 20C40 8.95431 31.0457 0 20 0C8.95431 0 0 8.95431 0 20C0 31.0457 8.95431 40 20 40Z" fill="#008CE7"/>
<path d="M23.8576 10.0054H14.7626L14.01 14.2141L22.2126 14.2266C26.2513 14.2266 27.45 15.6928 27.4113 18.1266C27.3938 19.3741 26.85 21.4841 26.62 22.1641C25.9988 23.9891 24.7188 26.0666 19.9213 26.0604L11.9488 26.0554L11.1963 30.2691H20.2676C23.4663 30.2691 24.8288 29.8954 26.2676 29.2316C29.46 27.7591 31.3613 24.6054 32.125 20.4891C33.2576 14.3641 31.845 10.0054 23.8563 10.0054H23.8576Z" fill="white"/>
<path d="M19.7586 19.747C20.0549 18.5157 20.1486 18.022 20.1486 18.022H10.8411C8.46113 18.022 8.12113 19.572 7.89488 20.5095C7.59863 21.7357 7.50488 22.2357 7.50488 22.2357H16.8136C19.1924 22.2357 19.5324 20.6857 19.7586 19.747Z" fill="white"/>
</g>
</g>
<defs>
<clipPath id="clip0_86_1507">
<rect width="40" height="40" fill="white"/>
</clipPath>
</defs>
</svg>
