<svg width="40" height="40" viewBox="0 0 40 40" fill="none" xmlns="http://www.w3.org/2000/svg">
<g clip-path="url(#clip0_86_1538)">
<mask id="mask0_86_1538" style="mask-type:luminance" maskUnits="userSpaceOnUse" x="0" y="0" width="40" height="40">
<path d="M40 0H0V40H40V0Z" fill="white"/>
</mask>
<g mask="url(#mask0_86_1538)">
<path d="M20 40C31.0457 40 40 31.0457 40 20C40 8.95431 31.0457 0 20 0C8.95431 0 0 8.95431 0 20C0 31.0457 8.95431 40 20 40Z" fill="#988430"/>
<path d="M20 39.3598C30.6918 39.3598 39.3593 30.6923 39.3593 20.0005C39.3593 9.30859 30.6918 0.641113 20 0.641113C9.3081 0.641113 0.640625 9.30859 0.640625 20.0005C0.640625 30.6923 9.3081 39.3598 20 39.3598Z" fill="#7A6A2A"/>
<path d="M20.0003 38.9522C30.4669 38.9522 38.9517 30.4674 38.9517 20.0008C38.9517 9.53413 30.4669 1.04932 20.0003 1.04932C9.53372 1.04932 1.04883 9.53413 1.04883 20.0008C1.04883 30.4674 9.53372 38.9522 20.0003 38.9522Z" fill="#BA9F33"/>
<path fill-rule="evenodd" clip-rule="evenodd" d="M8.74439 17.8647C8.63111 17.7613 8.51143 17.6576 8.40135 17.5542C8.29127 17.4507 8.1782 17.347 8.06492 17.2435L7.72828 16.9235C7.67324 16.8685 7.615 16.8201 7.55997 16.7648C7.50492 16.7164 7.44028 16.6614 7.38524 16.6127C6.93852 16.1888 6.48924 15.7649 6.04871 15.3408C6.50503 15.7583 6.95175 16.1728 7.40807 16.5965L7.56658 16.7552C7.62161 16.81 7.67986 16.8587 7.73489 16.9137L8.07132 17.2244C8.1846 17.3278 8.29468 17.4315 8.40797 17.5444C8.52124 17.6572 8.63111 17.7615 8.74439 17.8647ZM2.81564 17.8007C2.81564 17.8007 4.44017 17.9689 5.23314 18.0822C5.96764 18.1858 8.26546 18.5385 8.26546 18.5385L2.81564 17.8007ZM2.81564 17.8007C3.27197 17.8396 3.72828 17.888 4.1846 17.9366C4.41757 17.9593 4.64092 17.9851 4.86428 18.0077L5.20711 18.0467C5.32039 18.0627 5.43047 18.0789 5.54375 18.0952L6.90311 18.3119L7.58258 18.4252C7.80594 18.464 8.02929 18.5063 8.26226 18.5451C8.03889 18.5225 7.80594 18.49 7.58258 18.4576L6.90311 18.3605L5.54375 18.16C5.43047 18.1438 5.32039 18.121 5.20711 18.105L4.86407 18.0655C4.64071 18.0429 4.40775 18.0105 4.18439 17.9845C3.72807 17.9296 3.27196 17.8718 2.81564 17.8007ZM8.10375 18.9617C8.10375 18.9617 6.36914 19.402 5.78332 19.5704C5.20732 19.7289 3.46289 20.2596 3.46289 20.2596L8.10375 18.9617Z" fill="#CFB66C"/>
<path fill-rule="evenodd" clip-rule="evenodd" d="M8.10321 18.9614C7.71815 19.0747 7.33521 19.1848 6.9446 19.2885L5.78599 19.5992C5.40092 19.7124 5.01799 19.8225 4.63399 19.9358L4.05799 20.0942C3.86706 20.1493 3.67292 20.1977 3.47559 20.253C3.6663 20.189 3.86066 20.1235 4.05159 20.0684L4.62759 19.8842C5.01266 19.7642 5.39559 19.651 5.77959 19.5312C6.17106 19.4342 6.55633 19.3305 6.9478 19.2366C7.31986 19.1428 7.71153 19.0489 8.10321 18.9614ZM3.70535 21.3273C3.89607 21.2562 6.09681 20.2304 6.60818 19.9908C6.86418 19.8709 7.60828 19.6068 7.60828 19.6068L3.70535 21.3273Z" fill="#CFB66C"/>
<path fill-rule="evenodd" clip-rule="evenodd" d="M3.70627 21.3277C3.87437 21.2637 4.0331 21.1854 4.1948 21.1109L4.67374 20.8876L5.63502 20.4249C5.95502 20.2728 6.26605 20.1049 6.59608 19.9619C6.7644 19.8909 6.93273 19.8327 7.10083 19.7776L7.35683 19.6968C7.44408 19.6741 7.52515 19.6481 7.61283 19.6255C7.29283 19.7776 6.95597 19.9071 6.63555 20.0558C6.31555 20.2145 5.9883 20.3439 5.65805 20.4863L4.68077 20.9166C4.35267 21.0495 4.03289 21.1918 3.70627 21.3277ZM3.9196 22.2237C3.9196 22.2237 5.91299 21.0555 6.59907 20.6799C6.95832 20.4795 8.12014 19.9032 8.12014 19.9032L3.9196 22.2237Z" fill="#CFB66C"/>
<path fill-rule="evenodd" clip-rule="evenodd" d="M3.91992 22.2238C4.25635 22.0167 4.59939 21.8063 4.94243 21.5928L5.45443 21.282C5.62915 21.1785 5.79747 21.0814 5.9756 20.978C6.15032 20.8742 6.31864 20.7708 6.49657 20.6737C6.58127 20.6214 6.67001 20.576 6.76195 20.5379L7.03374 20.402C7.39299 20.2272 7.75224 20.0491 8.13091 19.897C7.78787 20.114 7.43502 20.2985 7.08238 20.4892C6.90766 20.5862 6.72952 20.6737 6.5548 20.7708C6.38009 20.8679 6.21177 20.9715 6.03363 21.0654C5.85891 21.1689 5.69059 21.266 5.51267 21.3598L4.98509 21.6478L3.91992 22.2238ZM8.10424 20.159C8.10424 20.159 6.86478 21.1104 6.46349 21.4146C6.06222 21.7189 4.88099 22.5732 4.88099 22.5732L8.10424 20.159Z" fill="#CFB66C"/>
<path fill-rule="evenodd" clip-rule="evenodd" d="M15.2173 27.8308L14.583 26.6301L14.9519 25.1285L17.5829 24.1124L16.4631 21.8148L17.0166 19.4944L18.0555 17.4165L21.2659 16.9118L23.6249 14.6626L28.7189 15.0477L29.7188 20.4943L27.7933 27.3519L26.6963 30.9021L22.2496 31.0705L20.1849 29.6401L17.7675 28.6301L15.2173 27.8308Z" fill="#E2CC85"/>
<path fill-rule="evenodd" clip-rule="evenodd" d="M23.016 27.7928C23.016 27.7928 22.401 28.0744 21.352 28.0096C21.0485 27.6019 18.9224 27.411 18.9224 27.411C18.9224 27.411 18.657 27.3301 18.1876 27.5243C17.7153 27.7162 17.2686 27.6925 16.8511 27.7961C16.4336 27.8995 16.0191 27.3559 15.6991 27.2426C15.3791 27.123 14.9548 26.835 14.9548 26.835L14.0588 26.7475L12.2596 25.987L9.4011 23.1392L8.62434 24.3552L8.38477 25.8601L9.24901 27.6433L11.5758 29.763L16.113 30.915L18.8023 30.1226L22.1712 28.6986L23.016 27.7928Z" fill="#F1D789"/>
<path fill-rule="evenodd" clip-rule="evenodd" d="M6.89693 17.7285L7.47293 15.9843L8.15923 14.8579L10.3693 14.6733L9.70589 16.6087L7.85821 19.8968L8.62515 22.8321L7.266 23.5115L6.84829 22.8709L6.51187 21.4017L6.48926 19.7512L6.89693 17.7285Z" fill="#F4ECB4"/>
<path fill-rule="evenodd" clip-rule="evenodd" d="M9.3759 27.6726L8.95199 27.0804C8.95199 27.0804 8.83871 26.7988 8.90357 26.5529C8.96757 26.3037 8.95839 26.2874 8.92618 26.1936C8.89397 26.0997 8.62196 25.7761 8.63818 25.4977C8.65418 25.2161 8.61556 25.1222 8.82249 24.8991C9.03925 24.6823 8.9746 24.3069 8.9746 24.3069L9.25618 24.4816L9.32018 24.3845C9.32018 24.3845 9.42363 24.4654 9.42363 24.5917C9.44627 24.417 9.35245 23.6078 9.56599 23.4234C9.77954 23.2391 10.1582 24.2874 10.1582 24.2874L9.92527 22.7664L9.32636 21.2067L8.26164 19.7827L8.19764 18.213V18.0771C8.19764 18.0771 7.70888 18.8281 7.57299 19.4211C7.47592 19.8288 7.70889 20.324 7.66046 20.9098C7.62142 21.4923 7.57299 21.447 7.71528 21.6778C7.85758 21.9086 8.20404 22.3832 8.06814 22.7263C7.94847 23.0209 7.54057 22.8138 7.54057 22.8138C7.54057 22.8138 7.45971 23.0531 7.34963 23.1406C7.3108 22.9983 7.26878 22.9076 7.19112 22.8206C7.18451 22.8756 7.16851 22.9501 7.16851 22.9501C7.16851 22.9501 7.09726 22.7267 7.026 22.4451C6.92915 22.0699 6.82547 21.5747 6.7316 21.3093C6.69278 21.4614 6.5957 21.9241 6.5957 21.9241L6.65075 22.6362L6.91614 23.6135L7.17214 24.2535L7.42131 25.0367L7.63785 25.5628L7.81257 25.9641L7.96468 26.8671L8.69919 27.6436L9.09087 27.8185L9.3759 27.6726Z" fill="#F3E19D"/>
<path fill-rule="evenodd" clip-rule="evenodd" d="M7.28144 16.3035C7.28144 16.3035 6.75386 17.1995 6.60197 18.1028C6.45008 19.006 6.31397 19.9604 6.40997 21.1902C6.50703 22.4298 6.69157 23.1902 6.84048 23.7339C7.09648 24.637 7.75952 25.8926 7.75952 25.8926L7.78213 25.844C7.67069 25.6327 7.58173 25.4103 7.51674 25.1805C7.42928 24.8375 7.39685 24.4298 7.31599 24.2452C7.24474 24.061 7.12506 23.9022 7.06682 23.6757C7.01179 23.4589 7.00282 23.1159 6.83386 22.8603C6.7626 22.7566 6.67514 22.4849 6.64932 22.2131C6.6169 21.8052 6.66554 21.3489 6.62671 20.9736C6.55546 20.349 6.50703 19.9251 6.57168 19.598C6.63631 19.271 6.97317 18.3425 7.18031 17.6046C7.31621 17.1321 7.23514 16.734 7.48431 16.3229C7.73349 15.9152 7.88581 15.556 7.94064 15.3068C8.00464 15.0802 7.28144 16.3035 7.28144 16.3035Z" fill="#F2E8B0"/>
<path fill-rule="evenodd" clip-rule="evenodd" d="M9.78309 15.9448C9.78309 15.9448 9.51136 16.0258 9.38182 16.1682C9.25236 16.304 9.19727 16.4173 9.02258 16.6471C8.84786 16.8768 8.83804 17.0646 8.69554 17.3526C8.55324 17.6342 8.23922 18.058 8.20039 18.2102C8.16156 18.3623 8.09692 19.0742 8.01607 19.4108C7.94482 19.7475 8.09692 20.1617 8.09692 20.1617L8.28124 20.1226C8.28124 20.1226 8.28124 20.3623 8.46578 20.5242C8.6501 20.6826 8.68253 19.9868 8.68253 19.9868L9.37182 17.66L10.4105 16.9545L10.5238 16.3849L9.78309 15.9448Z" fill="#F5EEC0"/>
<path fill-rule="evenodd" clip-rule="evenodd" d="M10.2881 16.9995C10.2881 16.9995 9.79936 17.0317 9.56 17.2066C9.46291 17.2777 9.42409 17.336 9.32063 17.4234C9.12972 17.5819 8.93533 17.7276 8.84169 17.9354C8.73801 18.1423 8.62472 18.4563 8.54707 19.0486C8.51464 19.2978 8.51464 19.5275 8.49203 19.7282C8.45961 20.0001 8.41118 20.2168 8.43699 20.3682C8.46941 20.6789 8.78984 20.8408 8.82099 21.1934L9.48445 20.857L10.1091 18.3941L11.436 17.5621L10.6851 16.7207L10.2873 16.998L10.2881 16.9995Z" fill="#E6DB9D"/>
<path fill-rule="evenodd" clip-rule="evenodd" d="M6.78829 33.5852C6.79107 33.5608 6.79384 33.5366 6.79661 33.5116C6.89347 32.6796 6.90989 32.049 6.98094 31.6541C7.0844 31.0943 7.15566 30.8861 7.13944 30.6766C7.11683 30.3402 7.09101 30.0942 7.12344 29.8352C7.17187 29.4922 7.50851 29.0845 7.49891 28.8029C7.49229 28.5796 7.37901 28.434 7.28195 28.2981C7.18489 28.1623 7.10723 28.049 7.10723 28.049C7.10723 28.049 7.7707 27.5927 7.7643 25.7544C7.77784 25.7582 7.79089 25.7637 7.80312 25.7706L8.12995 26.6992L8.35331 26.971L9.2109 28.5698L10.3144 29.6411L11.9454 30.738L12.9682 31.851L13.0716 34.8187L11.7351 36.5533L11.5162 36.9497C9.77727 36.0767 8.18285 34.9421 6.78829 33.5852Z" fill="#E5CB7A"/>
<path fill-rule="evenodd" clip-rule="evenodd" d="M10.8711 36.4235C10.8711 36.4235 10.8937 36.0546 11.1979 35.815C11.2465 35.8959 11.2788 35.9737 11.2692 36.0318C11.3242 35.9349 11.7093 35.3134 12.5799 35.1515C13.4505 34.9931 13.6608 34.3588 13.6608 34.3588L15.5085 32.6793L17.6218 30.7343L20.1914 29.8313L21.3923 29.5366C21.3923 29.5366 21.4148 29.6241 21.3696 29.8183C21.5927 29.8023 22.0879 29.6889 22.6025 29.5076C22.8096 29.4267 23.004 29.3944 23.1075 29.5012C23.2595 29.6435 23.2822 29.9802 23.2917 30.1807C23.5409 30.1256 23.8289 29.8863 24.0597 29.9089C24.4288 29.9477 24.7556 30.3814 25.1311 30.3814C25.6263 30.3814 25.8494 30.0772 26.1958 29.8376C26.403 29.6954 26.7005 29.5176 26.8689 29.3975C27.2702 29.1029 31.5162 27.8052 31.5162 27.8052L33.0048 27.9023L33.2444 29.501L33.1164 33.6802C33.1005 33.6954 33.0848 33.7111 33.0688 33.7263L26.3002 37.2614L16.9178 38.6997C14.8161 38.3564 12.7879 37.6587 10.9197 36.6365L10.8711 36.4235Z" fill="#D8C173"/>
<path fill-rule="evenodd" clip-rule="evenodd" d="M7.35742 34.1164C7.49076 33.8376 7.61065 33.6045 7.63177 33.521C7.64841 33.6892 7.67892 34.058 7.74036 34.4501C7.61136 34.3405 7.48372 34.2294 7.35742 34.1164Z" fill="#F1D789"/>
<path fill-rule="evenodd" clip-rule="evenodd" d="M14.2104 38.0497L15.4239 37.7122L15.5273 37.7446C15.5273 37.7446 15.5824 37.7771 15.5824 37.8869C15.7345 37.7997 15.864 37.8157 15.9579 37.7576C16.0063 37.8611 16.0547 38.2041 16.2685 38.2461C16.4916 38.2948 16.7312 38.1491 16.974 37.9648C17.2133 37.7739 17.486 37.5342 17.6923 37.4372C17.768 37.5763 17.835 37.7201 17.893 37.8675C18.1648 37.6508 18.6373 36.7705 19.3104 36.7865C19.505 36.3268 19.83 35.9341 20.2453 35.6571C20.8699 35.2332 21.2613 35.2008 21.7501 35.2396C21.9442 34.9875 22.1834 34.7735 22.4556 34.6086C22.5364 34.6411 22.7598 34.777 23.0382 34.6474C23.3198 34.5181 23.6368 34.0164 24.0543 33.9518C24.2793 33.9208 24.508 33.9688 24.7015 34.0876C24.7015 34.0876 25.9175 32.8804 26.7566 32.4791C26.7242 32.3821 26.6595 32.0164 27.6432 31.2072C27.6983 31.2559 27.6594 31.3917 27.6983 31.3992C27.7143 31.3992 27.9543 31.2958 28.2581 31.0626C28.6335 30.7812 29.0832 30.4866 29.355 30.4057C29.867 30.2536 30.4102 30.5642 30.4102 30.5642C30.4563 30.5318 30.5078 30.5077 30.5623 30.493C30.6915 30.4703 30.7854 30.4541 30.8566 30.429C30.8503 30.5972 30.9441 30.8853 30.8566 31.1344C30.958 31.1914 31.0653 31.2371 31.1766 31.2703C31.1218 31.3901 31.0019 31.6942 30.8013 31.84C30.9695 31.9208 30.9921 32.0147 31.2317 32.096C31.1346 32.2319 30.9757 32.4651 30.9049 32.608C30.8336 32.7601 30.5778 33.3912 30.4645 33.6305C30.3449 33.8701 30.1832 34.3101 30.1053 34.3985C30.0274 34.4868 29.7461 34.8612 29.5293 35.0455C29.7213 34.9742 30.5068 34.7349 30.84 34.6442C30.7408 34.7897 30.238 35.5358 29.7545 36.2531C27.44 37.6405 24.8563 38.5185 22.1758 38.8289C19.4952 39.1392 16.7793 38.8747 14.209 38.0529L14.2104 38.0497Z" fill="#E0CD81"/>
<path fill-rule="evenodd" clip-rule="evenodd" d="M10.3678 16.9132C10.3678 16.9132 10.0864 16.9132 10.0314 16.9521C9.97635 16.9909 10.313 17.0719 10.4164 17.1108C10.52 17.1496 10.7433 17.3275 10.8015 17.47C10.8566 17.6059 12.8242 18.3986 12.8242 18.3986L14.2157 18.3274L14.6955 17.6646L13.7829 16.8652L14.4229 14.9785L13.5751 15.1143L11.5363 16.3303L10.5135 16.7221L10.3678 16.9132Z" fill="#DFC57C"/>
<path fill-rule="evenodd" clip-rule="evenodd" d="M13.4242 17.5365C13.4443 17.5691 13.4726 17.5958 13.5064 17.614C13.54 17.6321 13.5779 17.6411 13.6162 17.64C13.9042 17.64 14.1694 17.7113 14.2795 17.8567C14.464 18.0899 14.9754 18.8343 14.9754 18.8343L16.1986 19.2744L16.2776 17.8339L14.941 16.9053L13.4199 17.4651V17.5363L13.4242 17.5365Z" fill="#E5CC7C"/>
<path fill-rule="evenodd" clip-rule="evenodd" d="M13.1837 18.0703C13.1837 18.0703 13.4068 18.0865 13.6884 17.9829C13.97 17.8792 14.4327 17.6561 14.6334 17.7435C14.9149 17.8632 14.8566 18.2386 15.1611 18.5755C15.3454 18.7826 15.682 18.7763 15.873 18.9996C16.0639 19.223 16.7207 19.1193 16.7207 19.1193L16.9699 20.4633L15.97 21.745L15.643 23.3371H14.2909L13.0557 22.8471L12.4473 21.3751L12.7514 19.8864L13.1837 18.0703Z" fill="#D2C281"/>
<path fill-rule="evenodd" clip-rule="evenodd" d="M15.8001 18.1353C15.8336 18.1457 15.8685 18.1511 15.9036 18.1515C15.8647 18.184 15.7836 18.255 15.8161 18.4395C15.8485 18.624 15.952 18.857 15.8647 18.9993C15.9344 19.0755 15.9863 19.1661 16.0168 19.2647C16.0718 19.4234 16.0881 19.5689 16.4471 19.5917C16.3953 19.6236 16.3476 19.6617 16.3048 19.705C16.3048 19.705 16.554 19.9218 16.6803 20.1223C16.8096 20.1168 17.1526 20.01 17.1526 20.01L17.2238 20.0587L17.376 19.9947C17.376 19.9947 17.2336 19.9397 17.3371 19.5934C17.4342 19.2892 17.5216 19.3054 17.5291 19.2829C17.5366 19.2602 17.6004 18.9398 17.6004 18.8103C17.6488 18.6422 17.6876 18.1309 17.6876 18.1309L17.5842 17.0015L17.0018 16.6486L16.5282 16.1914L16.0815 17.0329L15.7873 17.3261L15.7646 18.0542L15.8001 18.1353Z" fill="#E2C270"/>
<path fill-rule="evenodd" clip-rule="evenodd" d="M17.2012 17.191C17.2012 17.191 17.3046 17.4854 17.3437 17.7119C17.3574 17.6679 17.3651 17.6222 17.3663 17.576C17.3663 17.576 17.4472 18.0228 17.4632 18.2073C17.4955 18.2007 17.5272 18.1911 17.5344 18.2233C17.5416 18.2556 17.6154 18.615 17.5984 18.8156C17.7332 18.5932 17.9196 18.4068 18.142 18.2719C18.2714 18.1909 18.4235 18.1037 18.5823 18.097C18.8314 18.0907 19.0126 18.2558 19.3104 18.2558C20.0287 18.2558 20.6794 17.7282 21.1583 17.5665C21.5109 17.4466 21.8152 17.3593 22.0287 17.1649C22.1324 17.0778 22.3169 16.8836 22.485 16.5954C22.7084 16.2114 22.9414 15.8771 23.1745 15.835C23.069 15.8545 22.9617 15.862 22.8545 15.8577C22.8545 15.8577 22.9257 15.7864 23.0465 15.6894C23.1673 15.5923 23.3119 15.4726 23.5188 15.4726C23.8879 15.4726 24.0722 15.5274 24.2794 15.5274C24.4865 15.521 24.6062 15.4726 24.6062 15.4726C24.6062 15.4726 24.8232 15.6247 25.3117 15.6247C25.8004 15.6311 26.1273 15.6731 26.3831 15.6959C26.6388 15.7188 27.4962 15.6247 27.7422 15.6319C27.9025 15.6381 28.06 15.6767 28.2051 15.7452L27.4122 13.4412L24.5637 10.9517L22.8679 12.1523L20.2593 14.7607L17.7352 15.6959L17.2075 16.2882V17.191H17.2012Z" fill="#CCB360"/>
<path fill-rule="evenodd" clip-rule="evenodd" d="M22.8647 15.8712C22.8647 15.8712 22.9359 15.8002 23.0553 15.7031C23.1749 15.606 23.321 15.4861 23.5279 15.4861C23.8968 15.4861 24.0813 15.5412 24.2884 15.5412C24.4956 15.5349 24.6152 15.4861 24.6152 15.4861C24.6152 15.4861 24.8324 15.638 25.3208 15.638C25.8095 15.6445 26.1363 15.6865 26.3922 15.7091C26.648 15.7317 27.5053 15.638 27.7513 15.6451C27.9116 15.6511 28.0691 15.6897 28.2141 15.7584L27.8548 14.7195L27.4375 13.9267L26.2464 12.6224C26.2464 12.6224 24.8171 11.781 24.8062 11.7746C24.7998 11.7682 24.3111 11.6387 24.3111 11.6387L23.0165 12.4219L21.842 15.4608L21.8193 16.1008L22.5796 16.46C22.7706 16.14 22.9812 15.884 23.1784 15.8516C23.0003 15.871 22.8647 15.8712 22.8647 15.8712Z" fill="#D5B457"/>
<path fill-rule="evenodd" clip-rule="evenodd" d="M22.8477 16.0876C22.7344 16.094 22.6408 16.0713 22.6148 15.9905C22.5177 15.7187 22.4401 15.6799 22.3588 15.6799C22.2775 15.6799 22.1679 15.8546 22.1028 15.8706C22.0377 15.8866 21.9605 15.6701 21.9605 15.6701L21.8893 15.6377C21.8893 15.6377 21.4718 15.9094 21.1774 16.2299C20.883 16.5503 20.4006 17.0941 20.1839 17.191C19.9672 17.2878 19.2226 17.3204 18.9679 17.3755C18.7132 17.4305 18.4307 17.6151 18.3919 17.6571C18.3531 17.6991 18.5054 17.7443 18.528 17.7863C18.5506 17.8251 18.2786 17.809 18.256 17.8503C18.24 17.8828 18.32 18.0672 18.3596 18.161C18.4291 18.1264 18.5053 18.1077 18.5828 18.106C18.832 18.0995 19.0134 18.2647 19.3109 18.2647C20.0294 18.2647 20.6799 17.7371 21.1588 17.5751C21.5116 17.4555 21.8159 17.3681 22.0294 17.1739C22.1329 17.0866 22.3174 16.8922 22.4857 16.6042C22.6086 16.407 22.7285 16.2224 22.8484 16.0865L22.8477 16.0876Z" fill="#D2B257"/>
<path fill-rule="evenodd" clip-rule="evenodd" d="M12.5439 32.1046C12.5439 32.1046 12.4799 31.865 11.8868 31.247C11.7185 31.0722 11.615 30.927 11.5017 30.8231C11.2202 30.5574 11.055 30.4864 10.8545 30.3343C10.4144 30.0075 9.93546 30.0075 9.56664 29.6062C9.19773 29.2049 8.76789 28.4382 8.46921 27.6546C8.17481 26.8714 8.09375 26.6223 8.09375 26.5997C8.09375 26.5771 8.17481 26.425 8.27829 26.4476C8.38175 26.4701 8.38175 26.6707 8.40778 26.7193C8.45932 26.7988 8.5178 26.8734 8.5825 26.9425C8.7346 27.1174 8.95135 27.3265 9.06143 27.6384C9.03881 27.3731 8.94815 27.0786 8.94815 27.0786C8.94815 27.0786 9.51773 27.4379 10.0031 27.8131C10.4918 28.1886 10.6924 28.3181 10.8351 28.5574C10.9778 28.7968 11.314 29.4281 11.4751 29.6126C11.6362 29.7971 13.8431 30.4928 13.8431 30.4928L14.8929 31.2755L15.4141 32.418L15.0062 33.058L14.223 33.2262L12.9511 32.6567L12.5439 32.1046Z" fill="#D2B159"/>
<path fill-rule="evenodd" clip-rule="evenodd" d="M9.71875 28.1682C9.71875 28.1682 9.9842 28.5921 10.6314 28.9934C11.214 29.3463 12.1363 29.6667 12.9585 29.8577C13.4307 29.9709 13.9033 30.0581 14.3272 30.0648C15.4696 30.0808 16.2559 29.7541 17.2302 29.6473C17.7578 29.5922 18.4051 29.5502 19.0781 29.3913C19.9421 29.1841 20.4535 28.9509 21.1494 28.6233C21.6541 28.3903 22.1171 28.2156 22.4923 27.9922C23.0199 27.6817 23.4049 27.3354 23.8517 27.2319C23.7967 27.384 23.7384 27.6558 23.2983 27.9374C23.5313 27.9308 23.8517 27.9148 23.8517 27.9148C23.8517 27.9148 23.5411 28.0991 22.9941 28.5134C22.6575 28.7694 22.2109 29.2027 21.7547 29.4907C21.46 29.6752 21.1396 29.8107 20.9292 29.9212C20.4172 30.2028 20.2107 30.3451 19.8743 30.6892C19.9939 30.6828 20.0038 30.6892 20.0038 30.6892C20.0038 30.6892 19.5797 30.7442 19.2757 30.9059C19.2117 30.9059 19.1007 30.8833 18.9067 30.9384C18.7545 30.9868 18.5537 31.0971 18.3468 31.1551C18.0522 31.2426 17.9554 31.2038 17.9554 31.2038L18.0037 31.3008C18.0037 31.3008 17.6198 31.2942 17.4917 31.3072C17.5144 31.3137 17.508 31.3235 17.508 31.3235C17.4855 31.3272 17.4638 31.3348 17.444 31.346C17.3824 31.3859 17.3147 31.4154 17.2435 31.4333C17.2047 31.4397 17.1722 31.4397 17.1236 31.4495C17.1397 31.4883 17.2661 31.7055 17.3243 31.8335C17.2759 31.8659 16.5476 32.4161 16.5476 32.4161C16.5702 32.4517 16.5887 32.4897 16.6027 32.5294C16.6252 32.6005 16.635 32.7041 16.6577 32.7526C16.7125 32.8497 16.7449 32.8658 16.7449 32.8658C16.7449 32.8658 16.6577 32.882 16.5053 32.9208C16.376 32.9533 16.2173 33.0081 15.9933 33.0406C15.9246 33.0495 15.8555 33.0549 15.7862 33.0568C15.8187 33.128 15.9609 33.3998 15.6988 33.7137C15.4366 34.0274 15.3557 34.0731 15.2748 34.2737C15.2341 34.2428 15.1908 34.2158 15.1453 34.1926C15.0581 34.1538 14.9382 34.0957 14.8962 34.0178C14.8717 34.1216 14.8392 34.2233 14.7991 34.322C14.7182 34.5388 14.5986 34.7526 14.5759 34.9143C14.4885 34.8172 14.3268 34.6263 14.1034 34.6651C13.88 34.7039 13.7021 35.0081 13.6633 35.0956C13.6633 35.0406 13.6245 34.9986 13.6148 35.0632C13.6083 35.1344 13.4854 35.8786 12.7993 36.4806C12.7929 36.3285 12.7929 35.9918 12.7767 35.8819C12.7127 35.9459 12.6344 36.0405 12.1683 36.2412C11.7119 36.4418 11.7843 36.6425 11.7843 36.6425C11.7843 36.6425 11.7455 36.3225 11.9914 35.9854C12.2406 35.649 12.3927 35.4903 12.3927 35.4645C12.3887 35.4381 12.3775 35.4135 12.3603 35.3932C12.3278 35.3608 12.2632 35.3219 12.2632 35.2961C12.302 35.2801 12.6871 35.0956 12.6645 34.7135C12.6418 34.3707 12.4964 34.1926 12.3927 34.0665C12.3767 34.0503 12.545 33.9306 12.5222 33.8918C12.506 33.8691 12.299 33.7168 12.273 33.6358C12.2791 33.5874 12.29 33.5398 12.3055 33.4935C12.328 33.4222 12.3443 33.3736 12.3378 33.3251C12.3217 33.2443 12.2342 33.0209 12.2084 32.9983C12.231 33.0048 12.3927 32.9983 12.3927 32.9983C12.3927 32.9983 12.2634 32.7912 12.2406 32.6941C12.2178 32.597 12.1693 32.3412 12.1436 32.2928C12.1986 32.2992 12.3345 32.3088 12.3345 32.2928C12.3411 32.2442 12.2148 32.1633 12.2705 32.1008C12.3093 32.1072 12.3837 32.1397 12.4547 32.2303C12.4159 32.1267 12.3513 31.9261 12.2152 31.8452C12.2792 31.8227 12.4968 31.7642 12.6877 31.8775C12.8787 31.9908 12.9437 32.1492 12.9437 32.1492C12.9437 32.1492 13.057 32.2368 13.2319 32.3662C13.4325 32.5248 13.688 32.7502 14.0959 32.9098C14.1834 32.9584 14.4066 32.9584 14.5685 32.926C14.639 32.9092 14.7066 32.8819 14.769 32.8451C14.7916 32.8318 14.8155 32.821 14.8403 32.8128C14.8055 32.7428 14.7655 32.6758 14.7206 32.6119C14.7757 32.6119 14.8403 32.6186 14.8403 32.6186C14.8403 32.6186 14.8791 32.5311 14.7044 32.3626C14.7432 32.3238 14.7918 32.2986 14.7918 32.2331C14.7368 32.2267 14.6398 32.1458 14.6171 32.1134C14.6493 32.0908 14.698 32.0163 14.753 31.9938C14.7044 31.9549 14.5847 31.793 14.5297 31.777C14.5822 31.7575 14.6331 31.7337 14.6818 31.7058C14.6818 31.7058 14.4099 31.6345 14.3225 31.5762C14.235 31.5122 14.1058 31.4015 14.0281 31.3691C13.947 31.3367 13.8047 31.3207 13.7465 31.2558C13.8013 31.272 13.8888 31.2558 13.9537 31.2558C14.0021 31.2558 14.0249 31.2622 14.0409 31.2622C14.0345 31.2396 14.0345 31.1909 14.1608 31.1749C14.2216 31.1658 14.2805 31.1472 14.3356 31.1199C14.3356 31.1199 14.2157 31.1135 14.0796 30.984C13.9434 30.8546 13.8304 30.751 13.7527 30.7348C13.6718 30.7187 13.5197 30.7898 13.4258 30.7833C13.2964 30.7673 13.2413 30.7024 13.2413 30.7024C13.2413 30.7024 12.811 30.7412 11.8564 30.1588C11.031 29.6538 10.6717 29.2074 10.6717 29.2074C10.5945 29.1794 10.5198 29.1447 10.4486 29.1037C10.138 28.942 9.70748 28.6054 9.72048 28.165L9.71875 28.1682Z" fill="#C2A44D"/>
<path fill-rule="evenodd" clip-rule="evenodd" d="M21.6247 8.74534C21.6996 8.76966 21.7661 8.81453 21.8167 8.87484C21.9688 9.04956 22.0659 9.37958 21.7196 9.7324C21.8556 9.78086 21.9116 9.7964 22.0303 9.78086C21.9106 9.9234 21.6388 10.2276 21.6226 10.4929C21.6064 10.7097 21.7423 10.7746 21.7423 10.7746C21.7423 10.7746 21.5351 11.0139 21.5256 11.4146C21.6234 11.3042 21.7305 11.2025 21.8456 11.1103C22.0851 10.9194 22.4152 10.7027 22.6385 10.5668C22.6355 10.6238 22.6431 10.6808 22.6611 10.7349C22.6611 10.7349 23.0784 10.3919 23.4291 10.5441C23.5876 10.6154 23.5164 10.8386 23.5164 10.8386C23.5164 10.8386 23.7334 10.7577 23.8855 10.9099C24.0376 11.0619 24.2526 11.4542 24.3629 11.6063C24.4113 11.6776 24.5376 11.8135 24.6669 12.0239C24.8436 12.3183 24.991 12.6294 25.1072 12.9525C25.1136 12.7841 25.1556 12.5222 25.6348 12.6871C26.1137 12.8554 26.6573 13.2083 27.1136 13.9031C27.5699 14.5979 27.683 15.3823 27.9128 15.681C28.1457 15.969 28.3853 16.4479 28.4016 16.6487C28.4177 16.8495 28.3303 17.4965 28.8092 19.2473C28.9451 18.7038 29.1523 17.4965 29.1523 17.4965L29.2656 16.4318L29.395 13.1372L25.9548 10.2792L23.2655 8.32764L21.5146 8.49596L21.6247 8.74534Z" fill="#CAA13E"/>
<path fill-rule="evenodd" clip-rule="evenodd" d="M28.0163 13.6471C28.0163 13.6471 27.9677 13.3271 27.1588 12.7831C26.3496 12.246 25.7186 12.246 25.1361 11.7896C24.6894 11.4304 24.2235 10.605 23.9201 10.3332C23.6255 10.0646 23.5771 9.28787 23.5771 9.28787L24.5706 8.45587L26.0481 6.32019L27.2972 4.94482L27.8959 5.77682L28.7279 6.75411L29.1906 8.71529L29.3589 11.5859L28.0149 13.6473L28.0163 13.6471Z" fill="#B59544"/>
<path fill-rule="evenodd" clip-rule="evenodd" d="M29.0159 17.0873C29.0404 16.652 28.9866 16.2158 28.8572 15.7994C28.6438 15.136 28.1777 13.9579 27.9612 13.5167C27.8737 13.028 27.9385 12.9891 28.0325 12.9341C28.1263 12.8791 28.4792 12.6781 28.6725 11.9731C28.8657 11.268 29.4654 11.245 29.4654 11.245L29.8343 10.9731L30.3943 12.3743L30.8828 13.6398L31.0349 14.6075L31.1482 15.4327L30.8828 17.1771L29.5723 18.3615L29.0159 17.0873Z" fill="#C89D3A"/>
<path fill-rule="evenodd" clip-rule="evenodd" d="M10.7275 36.5318V36.4958C10.7547 36.4788 10.7788 36.4572 10.7985 36.4318C10.8212 36.3995 10.8376 36.3607 10.8536 36.351C10.886 36.3348 11.0382 36.287 11.119 36.3024C11.1998 36.3178 11.4136 36.4058 11.5269 36.3995C11.7598 36.393 12.0316 36.2149 12.4622 36.296C13.1094 36.4157 13.2615 36.8558 13.637 37.1049C13.893 37.2799 14.1579 37.202 14.1967 37.202H14.284C14.3002 37.202 14.4199 37.0661 14.4847 37.0728C14.6143 37.0791 14.6271 37.186 14.7079 37.1924C14.8988 37.215 15.2679 37.0954 15.4524 37.144C15.5072 37.1611 15.5569 37.1913 15.5974 37.2318C15.638 37.2723 15.6682 37.322 15.6854 37.3768C15.7242 37.4964 15.6918 37.6486 15.5979 37.736C15.3974 37.9203 15.2064 38.0953 15.1676 38.248C15.217 38.2857 15.2644 38.3258 15.3097 38.3683C13.7084 37.9604 12.1678 37.3435 10.7275 36.5337V36.5318Z" fill="#CEB052"/>
<path fill-rule="evenodd" clip-rule="evenodd" d="M27.9609 30.0656C27.9609 30.0656 28.4658 29.3926 28.6407 29.0591C28.8154 28.7154 28.0873 24.3634 28.0873 24.3634L29.5501 19.5706L29.511 18.0107C29.511 18.0107 29.5823 16.5706 29.7507 15.9459C29.9514 16.3052 30.576 16.7389 30.7119 16.9686C30.7759 16.5283 30.9933 15.5996 30.9611 14.6094C31.0808 14.7937 31.3688 16.6482 31.3688 16.6482L31.6568 17.8973L32.0323 19.2242L32.4498 20.6256L32.6989 21.5933L32.8412 21.8263L32.9611 22.2339L33.0744 22.6742L33.4013 23.7066L33.5933 24.5544L33.7454 26.0916C33.7785 26.2094 33.8023 26.3295 33.8167 26.4509C33.823 26.6192 33.794 26.7163 33.794 26.7455C33.794 26.7747 33.849 27.1144 33.8264 27.3701C33.794 27.6261 33.794 27.8265 33.5933 28.0101C33.3925 28.1938 33.2664 29.2916 33.2664 29.2916L32.9072 29.0523C32.9072 29.0523 32.9784 28.7252 32.8101 28.4276C32.6418 28.13 32.3149 28.0684 32.1304 28.117C31.9461 28.1558 31.5772 28.2138 31.4573 28.3176C31.344 28.421 31.0658 28.7415 30.8101 28.8871C30.49 29.0791 29.9687 29.0943 29.6905 29.1589C29.4088 29.2229 29.0983 29.4149 28.7712 29.6378C28.5148 29.8039 28.244 29.9466 27.9622 30.0646L27.9609 30.0656Z" fill="#CCA847"/>
<path fill-rule="evenodd" clip-rule="evenodd" d="M27.9609 37.1366C27.9609 37.1366 27.9823 37.1505 28.0235 37.1731C30.3227 36.0959 32.3828 34.569 34.0821 32.6824C34.0636 32.0275 34.0395 31.3561 34.013 31.1074C33.9582 30.5798 33.997 30.0426 33.9808 29.7321C33.9646 29.4214 33.7898 28.1559 33.709 27.8291C33.6216 27.5022 33.453 27.3403 33.4274 27.3403C33.4048 27.347 33.2687 27.9554 33.2687 28.1083C33.2687 28.2613 33.2363 28.6295 33.2363 28.7234C33.2137 28.7168 33.204 28.6594 33.204 28.6359C33.1717 28.7168 33.1328 28.8592 33.1166 28.8755C33.1004 28.8917 33.1392 28.7396 33.1166 28.7072C33.0939 28.6748 33.0526 28.691 33.0616 28.6102C33.0654 28.5622 33.0729 28.5146 33.0842 28.4678C33.0842 28.4678 32.9871 28.6102 32.916 28.9726C32.8448 29.3318 32.8448 29.3416 32.819 29.3739C32.7964 29.4129 32.6668 29.5422 32.6603 29.5908C32.6538 29.6781 32.7802 29.7655 32.7898 29.814C32.7962 29.8951 32.6765 30.2702 32.6377 30.454C32.5988 30.6376 32.615 30.9975 32.5737 31.1821C32.5412 31.3503 32.5097 31.4474 32.3989 31.5185C32.4798 31.5347 32.5575 31.5573 32.5575 31.5573C32.5575 31.5573 32.6708 32.0362 32.3828 32.4442C32.2793 32.5864 32.2535 32.6512 32.1434 32.7808C31.9264 33.0202 31.7581 33.2928 31.7418 33.4701C31.7307 33.4177 31.7231 33.3647 31.7193 33.3113C31.7193 33.3113 31.3828 33.7031 31.2403 33.9263C31.056 34.2143 30.8002 34.1982 30.7283 34.2694C30.6564 34.3407 30.6408 34.47 30.6643 34.5736C30.6003 34.5896 30.48 34.6124 30.3989 34.8616C30.3601 34.9909 30.263 35.1176 30.1109 35.2047C29.9588 35.2917 29.7743 35.318 29.6804 35.3406C29.7613 35.3632 29.7938 35.3632 29.8326 35.389C29.7841 35.4699 29.5608 35.5961 29.3116 35.7581C29.0624 35.9101 28.9425 36.1333 28.8811 36.2791C28.8171 36.4149 28.7226 36.5023 28.5705 36.5186C28.6345 36.5574 28.7292 36.6479 28.7776 36.6771C28.7064 36.6933 28.5856 36.6933 28.3699 36.8779C28.1434 37.0656 28.0658 37.1206 27.962 37.1368L27.9609 37.1366Z" fill="#C39D3C"/>
<path fill-rule="evenodd" clip-rule="evenodd" d="M23.4581 38.6356C23.582 38.5487 23.7163 38.4776 23.8577 38.4238C24.3625 38.2232 24.8964 38.1844 25.1068 38.1198C25.3075 38.0558 25.466 37.9674 25.7152 37.9189C25.7086 37.9758 25.703 38.029 25.697 38.0794C24.9625 38.3103 24.2144 38.4961 23.457 38.6356H23.4581Z" fill="#D2BA6B"/>
<path fill-rule="evenodd" clip-rule="evenodd" d="M32.7675 25.3594C32.7675 25.3594 32.664 25.9191 32.4795 26.272C32.2949 26.6248 32.0955 27.1134 32.0955 27.1134C32.0967 27.0033 32.1097 26.8936 32.1343 26.7864C31.9013 26.9222 31.3349 27.2493 31.1743 27.3947C31.0222 27.5306 30.7664 27.7702 30.7018 27.8835C30.8539 27.437 31.0124 27.0357 31.0384 26.8512C30.8055 27.0195 29.7179 27.9159 29.1517 28.5082L27.3879 29.9354C27.1843 30.0452 26.9747 30.1433 26.76 30.2293C26.456 30.3586 26.0968 30.4686 25.8314 30.5724C25.9026 30.3814 26.0157 30.2129 26.1744 30.0512C26.3428 29.8926 26.8475 29.3457 26.9251 29.0912C26.9964 28.8258 27.0126 28.6673 26.9188 28.4439C26.8312 28.4665 26.6308 28.4764 26.4949 28.5152C26.3589 28.554 26.2132 28.6995 26.2132 28.6995C26.2132 28.6995 26.3167 28.1073 26.54 27.5475C26.3718 27.5539 26.0838 27.6024 26.0838 27.6024C26.0838 27.6024 26.485 26.9293 27.1718 26.4602C26.9614 26.5049 26.7557 26.5687 26.5569 26.6508C26.1557 26.8192 25.7155 27.0684 25.3887 27.2043C25.573 26.9483 26.8675 25.1008 27.6379 23.379C28.4059 21.6605 28.6929 21.2204 28.8611 20.2982C28.9484 19.8419 28.9251 19.1675 28.9484 18.5636C28.971 17.9648 29.0455 17.4276 28.997 17.0684C29.1976 17.3175 29.9485 18.0198 29.9743 19.5895C29.9969 21.159 29.256 23.2789 28.4695 24.4211C28.6615 24.4762 29.1589 24.541 29.6701 23.6531C30.1812 22.7652 30.175 22.5173 30.3596 22.1483C30.3822 22.3328 30.3756 22.3974 30.3756 22.3974C30.3756 22.3974 31.1201 21.4946 31.4728 20.3586C31.544 20.8474 31.7544 21.2778 31.4241 22.1743C31.1298 22.9833 30.7447 23.1808 30.7447 23.1808C30.7447 23.1808 30.9356 23.1484 31.2169 22.98C31.2656 23.0997 31.256 23.236 31.3369 23.2843C31.4177 23.3324 31.5278 23.4137 31.544 23.4914C31.6313 23.3619 31.7671 23.1968 31.8094 23.0739C31.7769 23.3299 31.7544 24.4493 31.8734 25.0188C32.1228 24.9963 32.3784 24.98 32.553 24.5301C32.4334 24.9704 32.4334 25.2356 32.5142 25.6111C32.6469 25.5206 32.7666 25.3587 32.7666 25.3587L32.7675 25.3594Z" fill="#C0993A"/>
<path fill-rule="evenodd" clip-rule="evenodd" d="M24.3591 7.52125C24.3591 7.52125 24.1099 7.62471 23.6861 7.62471C23.3172 7.62471 23.4206 7.48242 22.8446 7.48242C21.9581 7.48242 18.8609 7.99442 18.3171 7.98717C17.9643 7.98077 19.5079 8.13928 19.5079 8.13928L23.4531 8.19431L24.2458 8.13031L24.5404 7.53085L24.3591 7.52125Z" fill="#A88F33"/>
<path fill-rule="evenodd" clip-rule="evenodd" d="M14.1299 15.233C14.1299 15.233 13.6249 15.6181 13.4113 15.9127C13.1978 16.2073 13.0845 16.4012 12.8418 16.6408C12.8988 16.643 12.9557 16.6353 13.0101 16.6181C13.0101 16.6181 13.0101 16.6821 12.9713 16.6991C13.0048 16.6952 13.0388 16.6991 13.0707 16.7101C13.1026 16.7212 13.1316 16.7393 13.1556 16.7631C13.0843 16.8019 12.8902 16.9962 13.0423 17.226C13.1556 17.4007 13.3952 17.4167 13.3952 17.4167C13.3952 17.4167 13.3402 17.5754 13.5699 17.5591C14.0651 17.5366 14.6184 17.3196 14.874 17.3747C15.13 17.4387 15.2755 17.4621 15.4566 17.7761C15.6486 18.0868 15.8159 18.1354 15.8159 18.1354C15.8159 18.1354 15.9292 17.8471 15.9033 17.4169C15.9962 17.185 16.0477 16.9385 16.0554 16.6888L15.8871 15.4493L15.1526 14.5205L14.2012 15.0481L14.1299 15.233Z" fill="#E3C571"/>
<path fill-rule="evenodd" clip-rule="evenodd" d="M15.0322 15.0484C15.0322 15.0484 15.1034 15.2167 15.4012 15.2327C15.3689 15.3039 15.3689 15.3138 15.3787 15.3686C15.385 15.4236 15.3947 15.5045 15.3947 15.5045C15.4274 15.4886 15.457 15.4669 15.4821 15.4405C15.4983 15.5118 15.4659 15.6248 15.4821 15.7059C15.4921 15.7551 15.5084 15.8029 15.5305 15.8481C15.5352 15.8371 15.5407 15.8263 15.5468 15.8159C15.5531 15.7998 15.6108 15.9907 15.7701 16.1359C15.77 16.1136 15.7755 16.0916 15.7861 16.0719C15.7886 16.1125 15.802 16.1517 15.825 16.1852C15.813 16.1795 15.8021 16.1719 15.7927 16.1626C15.7927 16.1626 15.8087 16.6746 15.8962 16.9393C15.9108 16.9222 15.9238 16.9039 15.935 16.8843C15.935 16.8683 15.9286 17.0269 15.9124 17.1403C15.8898 17.2536 15.906 17.4121 15.906 17.4121C15.9643 17.3661 16.0285 17.328 16.0967 17.2989C16.1938 17.2598 16.3527 17.1401 16.4496 16.8747C16.5058 16.7244 16.549 16.5696 16.579 16.412C16.6103 16.4722 16.632 16.537 16.643 16.604C16.6497 16.6849 16.8018 16.6429 16.8018 16.6429L16.8342 16.2899L17.0262 15.4906L17.201 14.9955L18.0423 13.6849L19.5625 12.5142L20.8895 12.8184L22.009 11.2973L20.0803 10.1387L18.255 10.3297L16.5985 12.624L15.2718 14.7051L15.0322 15.0484Z" fill="#D8B65B"/>
<path fill-rule="evenodd" clip-rule="evenodd" d="M24.5924 11.7273C24.5924 11.7273 24.4792 11.75 24.1523 11.9193C23.8255 12.0887 23.599 12.1425 23.4727 12.3917C23.3463 12.6409 23.3368 12.8384 23.3368 12.8384C23.3368 12.8384 23.5602 12.7413 23.6896 12.7089C23.8255 12.6767 23.9776 12.6862 23.9614 12.7413C23.9459 12.7791 23.9242 12.814 23.8974 12.8448C23.8974 12.8448 24.1534 12.8384 24.1466 12.9647C24.1398 13.091 24.0982 13.2301 24.0497 13.2915C24.0011 13.3555 23.8005 13.4502 23.778 13.5247C23.7229 13.6768 23.8006 13.6831 23.7713 13.8061C23.7487 13.926 23.6421 14.1589 23.2924 14.5666C22.9332 14.9745 22.7804 15.2625 22.7804 15.2625C22.7804 15.2625 22.6057 14.9357 22.5151 14.6541C22.4511 14.6862 22.1073 14.8772 22.1073 14.8772L21.3112 12.1039L21.3272 11.9193C21.3272 11.9193 21.3984 11.8321 21.4146 11.6701C21.295 11.6313 21.2788 11.5989 21.1201 11.4471C20.9613 11.2951 20.8321 11.1104 20.5669 10.9841C20.5281 10.9129 20.4794 10.816 20.2852 10.777C20.0912 10.7379 19.9747 10.7059 19.9747 10.7059C19.9747 10.7059 20.0782 10.6669 20.1268 10.586C20.0069 10.6022 19.9101 10.6411 19.6478 10.6346C19.3824 10.6281 19.3532 10.6184 19.2077 10.6411C19.0622 10.6637 18.8877 10.7285 18.8227 10.5051C18.7514 10.4501 18.5993 10.4988 18.4698 10.6895C18.3403 10.8801 18.2951 11.0325 18.0459 11.107C18.0284 11.2168 17.99 11.3222 17.9326 11.4176C17.8614 11.5375 17.7481 11.6571 17.596 11.8351C17.3564 12.1167 17.3952 12.5794 17.0134 12.9322C16.6283 13.2849 17.0774 11.9548 17.0774 11.9548L17.6922 10.4828L19.4431 8.77074L22.1615 8.58643L22.4269 9.99442L23.7539 10.4508L24.5921 11.7291L24.5924 11.7273Z" fill="#D3AE4D"/>
<path fill-rule="evenodd" clip-rule="evenodd" d="M25.0223 12.0382L23.88 10.3911L23.0806 9.77601C23.0806 9.77601 22.5111 8.72769 22.4722 8.69527C22.4398 8.67265 21.9026 8.61442 21.5596 8.5918L21.6236 8.75031C21.6984 8.77462 21.765 8.8195 21.8156 8.8798C21.9677 9.05452 22.0648 9.38455 21.7185 9.73737C21.8544 9.78582 21.9105 9.80137 22.0291 9.78582C21.9094 9.92837 21.6377 10.2326 21.6214 10.4979C21.6052 10.7146 21.7411 10.7793 21.7411 10.7793C21.7411 10.7793 21.534 11.0189 21.5244 11.4193C21.6222 11.309 21.7292 11.2072 21.8444 11.1151C22.084 10.9231 22.414 10.7072 22.6373 10.5713C22.6342 10.6284 22.642 10.6855 22.66 10.7396C22.66 10.7396 23.0772 10.3966 23.428 10.5487C23.5864 10.6199 23.5151 10.8433 23.5151 10.8433C23.5151 10.8433 23.7321 10.7625 23.8842 10.9146C24.0363 11.0666 24.2531 11.4582 24.3631 11.6105C24.4116 11.6817 24.5379 11.8176 24.6671 12.0277C24.8438 12.3223 24.9913 12.6334 25.1075 12.9566C25.1139 12.8271 25.1399 12.646 25.3635 12.646L25.0236 12.0376L25.0223 12.0382Z" fill="#CAA13E"/>
<path fill-rule="evenodd" clip-rule="evenodd" d="M7.89629 16.7176C7.89629 16.7176 7.81543 16.5169 7.89629 16.1255C7.97714 15.7339 8.10344 15.5495 8.14547 14.9735C8.1875 14.3975 8.56296 13.6789 8.56296 13.6789L9.60173 13.2065L10.3365 13.4071L10.5532 14.391L9.62428 14.903C9.62428 14.903 9.57591 15.1197 9.31373 15.2945C9.0515 15.4692 8.68904 15.6051 8.60179 15.7832C8.54962 15.8923 8.51156 16.0075 8.4885 16.1263C8.4885 16.1263 8.22312 16.0712 8.06461 16.2459C7.89629 16.4241 7.90269 16.5817 7.89629 16.7176Z" fill="#F4EFC8"/>
<path fill-rule="evenodd" clip-rule="evenodd" d="M9.99417 16.4562C9.99417 16.4562 9.90672 16.5113 9.84208 16.6482C9.77808 16.5448 9.62508 15.9298 9.61872 15.3764C9.61235 14.823 9.57926 14.6858 9.70726 14.495C9.83526 14.3044 10.3373 14.1034 10.266 13.76C10.1947 13.4331 9.8969 13.2972 9.53126 13.3911C9.27526 13.4551 9.08473 13.9995 8.81935 14.2713C8.61861 14.4784 8.37924 14.446 8.31461 14.5593C8.22713 14.7114 8.30799 14.8635 8.28218 14.9606C8.27556 14.993 8.19471 15.1677 8.04901 15.378C7.75461 15.802 7.25625 16.4008 7.19141 16.938C7.21402 16.6338 7.19801 16.6273 7.27887 16.2907L7.23023 16.2099L7.55023 15.1613L7.75738 14.2973L8.22031 12.8505L9.03567 11.3717L9.82862 10.4849L10.6538 10.5399L10.7509 11.7794L11.2234 14.1064L12.2169 15.3297L10.6245 16.4012L9.99417 16.4562Z" fill="#EBCC73"/>
<path fill-rule="evenodd" clip-rule="evenodd" d="M10.4881 16.8965C10.4881 16.8965 10.3522 16.929 10.3035 16.9031C10.2549 16.8773 10.2066 16.8481 10.2226 16.8157C10.2386 16.7832 10.3262 16.7284 10.3262 16.7024C10.3279 16.6789 10.3205 16.6556 10.3054 16.6375C10.2903 16.6193 10.2687 16.6078 10.2453 16.6053C10.1708 16.5958 10.1483 16.6441 10.1483 16.6441C10.1483 16.6441 10.077 16.5893 10.0189 16.5801C10.0533 16.576 10.0878 16.5738 10.1225 16.5735C10.033 16.5331 9.93809 16.5058 9.84082 16.4927C9.92164 16.4442 10.0804 16.3018 10.1838 16.3018C10.2874 16.3018 10.3522 16.2858 10.336 16.2307C10.3197 16.1757 10.2389 16.0948 10.1516 16.0624C10.1838 16.0236 10.2066 15.9653 10.129 15.8064C10.048 15.6479 10.0804 15.541 10.1065 15.5024C10.129 15.4538 10.2099 15.3665 10.2487 15.3114C10.2875 15.2564 10.32 15.182 10.3846 15.1431C10.417 15.1205 10.5205 15.0791 10.6242 15.0397C10.7375 15.0009 10.8314 14.9522 10.896 15.0009C10.9672 15.0492 10.9348 15.1141 10.9348 15.1141C10.9348 15.1141 11.1582 15.0331 11.3586 15.1367C11.5595 15.2336 12.0482 15.2952 12.0482 15.2952L12.2234 15.6481L11.0647 16.6416L10.5858 16.8811L10.4881 16.8965Z" fill="#E5C66B"/>
<path fill-rule="evenodd" clip-rule="evenodd" d="M12.0967 15.2714C12.0967 15.2714 11.7375 15.5109 11.6566 15.5982C11.705 15.6048 11.7859 15.6373 11.7535 15.6857C11.7147 15.7341 11.4817 15.9024 11.3522 16.0611C11.2163 16.2197 11.0868 16.4204 11.0416 16.5175C10.9931 16.6047 10.624 16.8605 10.498 16.8927C10.7634 16.8927 11.2973 16.5659 11.4979 16.5659C11.4915 16.6629 11.553 16.773 11.6662 16.7827C11.7795 16.7922 12.1063 16.8539 12.5464 16.5821C12.9865 16.3167 12.841 16.1192 13.0253 15.9899C13.3782 15.7567 13.5205 15.5496 13.7147 15.4203C13.9088 15.291 14.0092 15.2616 14.0092 15.2616C14.0092 15.2616 14.0157 15.1645 14.0732 15.1743C14.089 15.1761 14.104 15.1822 14.1166 15.1919C14.1291 15.2017 14.1388 15.2146 14.1445 15.2294C14.1445 15.2294 14.4811 14.9897 14.9125 14.9251C14.9024 14.9207 14.8944 14.9126 14.8899 14.9026C14.8899 14.9026 14.9221 14.8863 14.9287 14.8701C14.9287 14.8701 14.9513 14.8377 14.9676 14.8539C14.9838 14.8701 15.0064 14.9897 15.0388 15.0384C15.11 15.006 15.246 14.7017 15.246 14.7017L15.573 13.7666V12.9121L15.317 12.9607L13.397 13.7761L12.2318 14.9834L12.0967 15.2714Z" fill="#E6BD62"/>
<path fill-rule="evenodd" clip-rule="evenodd" d="M17.6244 11.08C17.7282 11.0548 17.8277 11.0144 17.9198 10.9602C17.881 11.0638 17.881 11.1771 17.7126 11.4231C17.5444 11.6691 17.5379 11.7046 17.402 11.9602C17.2662 12.2256 17.2499 12.6074 17.1205 12.7756C17.1785 12.7473 17.2407 12.7289 17.3047 12.7208C17.3047 12.7208 17.1755 12.8341 17.1205 12.9537C17.0654 13.0734 16.9684 13.3225 16.729 13.4749C16.4896 13.6272 16.1852 13.7241 15.8584 14.0833C15.5314 14.436 15.1949 14.8827 15.0264 15.0433C15.1138 14.8912 15.2335 14.587 15.2659 14.3864C15.2984 14.1859 15.2594 13.9462 15.3144 13.681C15.3694 13.4158 15.3694 13.2246 15.6344 12.7617C15.8994 12.2988 16.3529 10.6904 16.3529 10.6904L17.3302 10.3799L17.6247 11.079L17.6244 11.08Z" fill="#B6933F"/>
<path fill-rule="evenodd" clip-rule="evenodd" d="M16.9188 10.4896C16.9188 10.4896 16.6245 10.9135 16.5435 11.289C16.4627 11.6644 16.5369 11.6321 16.4885 11.8165C16.4595 11.9291 16.4595 12.0471 16.4885 12.1596C16.5905 11.9954 16.7301 11.8577 16.8958 11.7581C17.1742 11.59 17.4007 11.4701 17.5358 11.3278C17.6716 11.1757 17.7849 10.9265 18.0794 10.7356C17.9596 10.7194 17.7914 10.6644 17.7594 10.6716C17.8793 10.5357 18.2383 10.3285 18.6007 10.0795C18.96 9.82345 18.9374 9.72018 19.52 9.46454C19.3291 9.497 19.2384 9.44836 19.0796 9.46454C19.1436 9.32872 19.3676 9.26381 19.5916 9.04069C19.8156 8.81754 19.4494 8.4873 19.4494 8.4873L17.7427 9.51963L16.9175 10.4905L16.9188 10.4896Z" fill="#C49937"/>
<path fill-rule="evenodd" clip-rule="evenodd" d="M12.2881 9.71905L12.3269 9.40841L12.8156 8.6253L13.327 7.24994V5.36962L13.2882 4.28227L13.3691 3.57017L13.4304 3.34381L13.4954 3.25635L13.9126 3.47309L14.4888 4.25624L14.5439 5.7677L13.9839 8.15277L12.3852 9.89723L12.2881 9.71905Z" fill="#DFC068"/>
<path fill-rule="evenodd" clip-rule="evenodd" d="M13.5602 3.16867C13.5602 3.16867 13.3042 3.17528 13.2495 4.24003C13.195 5.30478 13.1685 5.86457 13.1297 6.39214C13.0909 6.91971 13.0004 7.23993 12.955 7.55076C12.9095 7.86159 12.8837 8.28527 12.7382 8.54425C12.6742 8.66393 12.5374 9.0394 12.2171 9.32104C11.8578 9.63159 11.3211 9.84859 11.2397 9.86477C11.0973 9.89704 10.3755 9.96822 10.0812 10.1302C9.97772 10.1852 9.79954 10.2499 9.60217 10.4344C9.21054 10.787 8.68957 11.418 8.31411 12.1786C7.73811 13.3146 7.16211 16.5217 7.16211 16.5217L7.2916 16.3049C7.2916 16.3049 7.30782 16.0169 7.59582 15.5119C7.87742 15.0072 7.79656 14.4408 8.18803 13.4731C8.34014 13.1043 8.53107 12.6253 8.76403 12.2174C9.13308 11.5539 9.57963 10.9844 10.0295 10.6738C10.764 10.169 11.5732 10.0589 11.5732 10.0589L12.4438 9.48295C12.4438 9.48295 12.5959 9.18849 12.7966 8.85189C13.0781 8.37956 13.4366 7.85199 13.515 7.08505C13.6349 5.94905 13.3466 5.20472 13.3629 4.53166C13.3791 3.85859 13.3854 3.36344 13.5215 3.24354C13.6577 3.12365 13.5602 3.16867 13.5602 3.16867Z" fill="#A88F33"/>
<path fill-rule="evenodd" clip-rule="evenodd" d="M13.56 8.24827C13.56 8.24827 13.944 7.30321 14.1198 6.46502C14.1522 6.2967 14.2169 6.12859 14.2331 5.9927C14.3139 5.19974 14.3365 4.87291 14.2331 4.43921C14.1522 4.11921 13.8416 3.83078 13.6797 3.60721C13.5212 3.37404 13.4467 3.28721 13.4792 3.23814C13.5115 3.18907 13.6376 3.10886 13.7605 3.11846C13.8912 3.12226 14.0196 3.15259 14.1382 3.2076C14.2567 3.26261 14.3628 3.34116 14.45 3.43846C14.6992 3.72646 14.8965 4.70396 14.8965 4.70396L15.1041 5.99376L15.6317 7.6183L13.5604 8.24956L13.56 8.24827Z" fill="#C99E3D"/>
<path fill-rule="evenodd" clip-rule="evenodd" d="M17.1682 7.26535C17.1682 7.26535 17.0969 7.29756 16.9677 7.26535C16.9731 7.31818 16.964 7.37151 16.9411 7.41946C16.9183 7.46742 16.8827 7.50814 16.8381 7.53714C16.7022 7.48209 15.4301 7.59217 15.4301 7.59217C15.4301 7.59217 14.8379 7.48849 14.6534 6.70535C14.5241 6.18417 14.7505 5.46588 14.676 4.99335C14.5628 4.29745 14.4042 4.16135 14.388 3.94481C14.3718 3.72828 14.3556 3.67303 14.3556 3.53714C14.2843 3.52092 14.2423 3.49831 14.1713 3.49831C14.155 3.43431 14.1873 3.37841 14.1162 3.26514C14.155 3.28135 14.4205 3.31377 14.731 3.60817C14.987 3.84775 14.987 3.935 15.0257 3.98364C15.0741 4.03206 15.4658 4.36764 15.6341 4.70215C15.8024 5.03666 16.1292 6.10332 16.2037 6.27805C16.2263 6.34929 16.2749 6.42055 16.3957 6.58226C16.5834 6.81543 16.8584 7.20092 17.169 7.26492L17.1682 7.26535Z" fill="#B58634"/>
<path fill-rule="evenodd" clip-rule="evenodd" d="M15.0713 4.00049C15.2674 4.31719 15.4435 4.64579 15.5987 4.98438C15.7896 5.41468 15.9029 5.76752 16.1425 6.05552C16.0129 5.68028 15.7832 4.94235 15.6473 4.68017C15.4952 4.40283 15.1846 4.10395 15.0713 4.00049Z" fill="#A88F33"/>
<path fill-rule="evenodd" clip-rule="evenodd" d="M12.8714 9.32001C12.8714 9.32001 12.5445 9.40082 11.9361 9.72128C11.7354 9.82473 11.5446 9.91201 11.3601 9.9931C10.8807 10.2098 10.3666 10.4101 9.95871 10.5206C9.99117 10.5595 10.0072 10.5755 10.0072 10.5755C10.0072 10.5755 10.0072 10.7342 10.0946 10.8246C10.0462 10.8733 9.39871 11.3134 9.5899 12.7858C9.71917 12.7374 9.87126 12.6726 9.8939 12.6726C9.9329 12.6791 9.94253 12.7858 9.99099 12.7858C10.0394 12.7858 10.1981 12.7218 10.3664 12.5042C10.36 12.5916 10.263 13.4719 10.7839 14.0641C10.881 13.9508 11.1269 13.5754 11.1269 13.5754L11.1333 13.4556C11.1333 13.4556 11.156 13.0382 11.2921 12.6563C11.4282 12.2745 11.6934 11.9928 11.6934 11.9928L13.0781 10.0155L12.8714 9.32001Z" fill="#E6C367"/>
<path fill-rule="evenodd" clip-rule="evenodd" d="M11.5761 12.2238C11.5126 12.2686 11.4428 12.3034 11.3689 12.3272C11.3463 12.2463 11.3139 11.9679 11.5048 11.6961C11.7282 11.3691 12.2167 10.9452 12.3526 10.6081C12.4401 10.3912 12.4012 9.84768 13.178 9.15177C13.9547 8.45585 14.2587 8.21649 14.2587 8.21649L15.5144 7.58545L17.0581 8.19388L16.2912 11.1998L15.6957 12.6078L13.3277 12.1612L11.5761 12.2238Z" fill="#DCBA5A"/>
<path fill-rule="evenodd" clip-rule="evenodd" d="M12.4795 11.4079L12.7741 11.0391V10.7769C12.7741 10.7769 13.1009 10.6894 13.4536 10.3302C13.8062 9.97088 14.295 9.28161 14.7255 9.32361C15.156 9.37225 15.198 10.2589 15.2142 10.5082C15.2305 10.7577 15.2855 11.3236 15.3728 11.6281C15.4699 11.9322 14.3242 13.0842 14.3242 13.0842L13.5462 13.6765L12.4795 11.4079Z" fill="#E9CE77"/>
<path fill-rule="evenodd" clip-rule="evenodd" d="M13.3916 14.4786C13.3916 14.4786 13.6311 14.1031 13.4556 14.0222C13.5591 13.7893 13.75 13.5433 13.75 13.5433C13.75 13.5433 13.8859 13.2068 14.326 12.7926C14.7661 12.3783 15.0381 12.1031 15.1093 11.8249C15.1532 11.6436 15.1771 11.458 15.1806 11.2715C15.2281 11.3104 15.2791 11.345 15.3327 11.375C15.4039 11.4074 15.7403 11.6856 15.6919 12.2456C15.6435 12.8056 15.4359 13.0386 15.4359 13.0386C15.4359 13.0386 15.2354 13.2391 15.0931 13.3428C14.9408 13.4462 14.886 13.5659 14.6301 13.5758C14.6564 13.5548 14.686 13.5384 14.7176 13.5271C14.7176 13.5271 14.4522 13.4948 14.3098 13.6241C14.1672 13.7535 13.8643 14.1518 13.7122 14.2717C13.5601 14.3687 13.3916 14.4786 13.3916 14.4786Z" fill="#CDAE50"/>
<path fill-rule="evenodd" clip-rule="evenodd" d="M24.152 8.18367C23.7697 8.04432 23.3679 7.96571 22.9612 7.95071C22.2815 7.9281 21.288 7.96692 20.314 7.97332C19.2654 7.97972 18.314 7.61407 16.9936 7.54942C16.7769 7.41993 16.2256 6.85353 14.5049 8.05417C14.6083 8.04777 15.7542 7.78879 16.152 8.28735C16.5532 8.7825 16.44 9.62392 16.3852 9.82437C16.2815 10.2711 15.9449 10.9216 15.8092 11.3779C15.6735 11.8342 15.7055 12.074 15.6084 12.394C15.5113 12.714 15.2978 12.8729 15.4239 13.2418C15.5922 13.1384 15.6799 13.1384 15.9611 12.5073C16.2422 11.8763 16.1844 11.4264 16.6506 10.8924C17.1069 10.3552 17.8666 9.62046 18.1554 9.43591C18.4442 9.25137 20.7378 8.06057 23.1393 9.19655C23.7185 9.1351 24.152 8.18367 24.152 8.18367Z" fill="#D2A83E"/>
<path fill-rule="evenodd" clip-rule="evenodd" d="M15.4726 7.74453C15.4703 7.72021 15.4649 7.69627 15.4566 7.67327C15.4342 7.62594 15.4046 7.58229 15.3692 7.54378C15.3692 7.54378 14.7995 7.44031 14.5115 7.47253C14.0065 7.52756 13.5503 8.15221 13.3367 8.47264C13.1232 8.79306 12.8577 9.28804 12.5697 9.54377C12.5729 9.51886 12.5672 9.49368 12.5535 9.4725C12.5535 9.4725 12.5697 9.49514 12.5375 9.52759C12.5054 9.56004 12.5051 9.57604 12.5214 9.59159L12.57 9.64004C12.586 9.64004 13.0327 9.43923 13.6411 8.872C14.2884 8.27978 14.7835 7.976 15.0425 7.87189C15.1806 7.81319 15.3248 7.77046 15.4726 7.74453Z" fill="#C29637"/>
<path fill-rule="evenodd" clip-rule="evenodd" d="M26.5209 5.31055C26.5209 5.31055 26.4172 5.43982 26.2877 5.58233C25.9997 5.88655 25.6243 6.22937 25.3038 6.58222C24.9998 6.91887 24.6568 7.18105 24.2716 7.62116C23.8863 8.06126 23.4396 8.5498 23.3265 8.6923C23.223 8.83481 23.1421 9.06777 23.1421 9.18746C23.0871 9.14864 23.0225 9.10664 23.0225 9.10664C23.0496 9.15736 23.0822 9.20518 23.1196 9.24909C23.2004 9.36237 23.3265 9.50509 23.3913 9.59218C23.4709 9.70291 23.528 9.82827 23.5595 9.961C23.5983 9.96737 23.8475 10.016 24.1583 9.50464C24.4691 8.99332 24.8766 8.43353 24.8766 8.43353L25.5238 7.47225L25.9316 6.65689L26.4436 5.74425L26.5209 5.31055Z" fill="#AC8132"/>
<path fill-rule="evenodd" clip-rule="evenodd" d="M27.1847 4.65723C27.1847 4.65723 26.793 4.97723 26.6409 5.16923C26.4888 5.36123 26.1289 5.86512 26.1289 5.86512L26.2584 5.8489L26.9155 5.2665L27.1715 4.81018L27.1847 4.65723Z" fill="#A88F33"/>
<path fill-rule="evenodd" clip-rule="evenodd" d="M27.0652 30.3762C27.0652 30.3762 27.0588 30.1108 27.2077 29.9523C27.3598 29.7936 27.7449 29.5606 28.1204 28.6868C28.4958 27.813 28.5377 27.6156 28.5377 27.6156C28.5377 27.6156 27.8646 28.1916 27.4497 28.3276C27.5467 28.1268 27.6017 27.9845 27.6504 27.8808C27.5954 27.8324 27.3624 27.7774 27.3397 27.7516C27.469 27.622 27.5403 27.3048 27.8025 27.0945C28.1391 26.8385 28.7539 26.3986 29.2318 26.0065C29.7097 25.6144 30.6492 24.7024 30.7691 24.437C30.8404 24.5405 30.8564 24.6051 30.8564 24.6051C30.8564 24.6051 30.384 25.2201 30.138 25.6116C29.9211 25.9482 29.9373 26.1392 29.9373 26.1392L30.384 25.9472C30.384 25.9472 30.5133 26.4261 29.9277 27.1544C30.1837 27.0574 30.2869 27.1156 30.4325 27.0346C30.1929 27.1868 29.8628 27.394 29.5523 27.9634C29.248 28.533 28.8337 29.1965 28.1348 29.6106C27.4552 30.0475 27.0635 30.3743 27.0635 30.3743L27.0652 30.3762Z" fill="#A67A2E"/>
<path fill-rule="evenodd" clip-rule="evenodd" d="M25.3106 8.52109C25.3106 8.52109 25.0452 9.07427 25.0064 9.50477C25 9.60841 24.974 9.68932 24.974 9.80896C24.9675 10.194 24.9966 10.6246 24.91 10.8251C24.8775 10.7442 24.8613 10.6892 24.8289 10.657C24.7804 10.7929 24.693 11.2168 24.6218 11.3753C24.5895 11.2718 24.5182 10.9126 24.5249 10.4887C24.5315 10.0648 24.5409 9.98368 24.5409 9.89641C24.5249 10.0258 24.4374 10.2007 24.405 10.3041C24.3566 10.2169 24.3015 10.1036 24.2367 10.0098C24.1979 10.0738 24.1494 10.1682 24.1074 10.2169C24.1008 10.178 24.0848 10.0744 24.075 9.92887C24.0686 9.76059 24.0588 9.54377 24.0686 9.49841C24.0846 9.41114 24.2207 9.06808 24.5087 8.75406C24.8517 8.37859 25.2046 7.65709 25.3081 7.43374C25.4115 7.21037 25.8516 6.28174 25.8516 6.28174H26.1882L25.6995 7.39491C25.6995 7.39491 25.4051 8.00334 25.253 8.22691C25.1009 8.45048 24.7804 9.09114 24.638 9.34032C24.7414 9.20441 24.8289 9.13314 24.9326 9.00366C25.0329 8.91298 25.3106 8.52109 25.3106 8.52109Z" fill="#8C6228"/>
<path fill-rule="evenodd" clip-rule="evenodd" d="M27.1916 4.61475C27.1366 4.78399 27.0497 4.94114 26.9356 5.07768C26.7349 5.31726 26.3043 5.63746 26.0942 5.89304C25.9022 6.14222 25.5182 6.82189 25.6928 7.62766C25.7568 7.45294 25.8772 7.10669 26.1977 6.71502C26.5182 6.32334 26.8612 5.87363 27.0297 5.52419C27.1978 5.17134 27.2204 4.89315 27.2204 4.89315L27.2844 4.81229L27.2456 4.62776L27.1905 4.61475H27.1916Z" fill="#CBA94C"/>
<path fill-rule="evenodd" clip-rule="evenodd" d="M33.745 26.0816C33.745 26.0816 33.6156 25.729 33.5767 25.4085C33.5378 25.0882 33.6407 25.0245 33.5216 24.6579C33.4504 24.4345 33.3211 24.4659 33.2887 24.4345C33.2563 24.4031 33.2336 24.0656 33.24 23.8811C33.2465 23.6965 33.2336 23.4572 33.2012 23.3535C33.1528 23.3147 33.1204 23.2822 33.0491 23.0429C32.9683 22.8033 32.9295 22.6837 32.8906 22.6126C32.8518 22.5416 32.7383 22.4767 32.7383 22.4055C32.7383 22.263 32.8678 22.1887 32.8678 22.1495C32.8614 22.0686 32.7643 22.1335 32.7383 22.1106C32.7061 22.0718 32.8194 21.8389 32.7774 21.8064C32.7611 21.7904 32.6478 21.9263 32.6186 21.8875C32.5862 21.8484 32.5474 21.4634 32.4891 21.2078C32.4343 20.9586 32.3758 20.7775 32.3695 20.7031C32.363 20.6318 31.9227 19.3762 31.816 19.072C31.7301 18.8149 31.6577 18.5534 31.5993 18.2888C31.5669 18.1367 31.5443 17.8259 31.528 17.8582C31.5118 17.8907 31.5216 18.0492 31.4956 18.0428C31.473 18.0362 31.3922 17.4831 31.3664 17.3956C31.3437 17.3081 31.2076 17.0116 31.1744 16.797C31.1419 16.58 31.0709 16.0136 31.0222 15.6285C30.9736 15.2434 30.951 15.085 30.951 14.9885C30.9589 14.7527 30.9459 14.5166 30.9122 14.2831C30.8482 13.8751 30.7202 13.38 30.6079 13.0922C30.3912 12.5484 29.815 11.1569 29.7119 10.8106C29.7119 10.7232 29.8252 10.7718 29.8252 10.7718C29.8252 10.7718 30.1066 11.4773 30.3137 12.0209C30.5145 12.5647 30.7055 13.0436 30.7541 13.0922C30.7929 13.1406 31.0971 13.6746 31.233 14.5484C31.3689 15.4222 31.4173 16.228 31.4984 16.7651C31.5372 17.0211 31.5696 17.2927 31.6505 17.5645C31.7377 17.8592 31.8736 18.1633 32.0518 18.6292C32.2039 19.021 32.3172 19.3478 32.3786 19.6293C32.4498 19.9886 32.4498 20.2604 32.4919 20.4385C32.5309 20.5906 32.5889 20.8946 32.7251 21.3345C32.8612 21.7744 33.0615 22.3411 33.1974 22.6937C33.463 23.3991 33.5814 23.9881 33.6215 24.3022C33.6569 24.6259 33.7775 25.7451 33.745 26.0816Z" fill="#A88F33"/>
<path fill-rule="evenodd" clip-rule="evenodd" d="M27.2077 4.57546L27.1915 4.61428C27.1915 4.61428 27.2399 4.63049 27.2304 4.69535C27.231 4.78408 27.2256 4.87275 27.2141 4.96074C27.1981 5.07401 27.1657 5.16127 27.1593 5.23252C27.1593 5.38463 27.1819 5.55935 26.9673 5.99306C26.9033 6.11274 26.8638 6.2162 26.8314 6.28746C26.7505 6.46218 26.7344 6.48821 26.6631 6.56906C26.7764 6.50506 27.1843 6.24906 27.3912 6.28746C27.2489 6.36831 27.0319 6.52703 26.8961 6.73418C26.9284 6.74058 27.0644 6.76661 27.28 6.73418C27.6393 6.67914 28.0405 6.54965 28.3932 6.57546C28.7785 6.59808 28.6264 6.11274 28.6264 6.11274L28.1818 5.13546L27.3404 4.54346L27.2077 4.57546Z" fill="#BE9C44"/>
<path fill-rule="evenodd" clip-rule="evenodd" d="M29.4019 11.8972C29.4019 11.8972 29.0265 11.5218 28.8743 10.2332C28.7222 8.93873 28.7547 7.03323 28.7547 7.03323L28.4505 6.2889C28.4505 6.2889 28.3865 5.79376 28.2271 5.60944C28.0678 5.42511 27.7548 5.11428 27.6123 4.96218C27.4698 4.81008 27.308 4.60292 27.2109 4.57049C27.2594 4.48964 27.4764 4.03332 28.3079 4.02692C29.1395 4.02052 29.3959 4.48324 29.4828 4.65157C29.5696 4.81988 29.9617 5.54757 30.1072 6.93424C30.2431 8.31921 30.2497 8.42289 30.2271 8.90183C30.2108 9.16723 30.1234 9.78205 29.9711 10.4389C29.832 10.9957 29.6798 11.6171 29.4015 11.8985L29.4019 11.8972Z" fill="#A17C34"/>
<path fill-rule="evenodd" clip-rule="evenodd" d="M28.224 13.0008C28.3491 13.0098 28.4741 12.9816 28.5832 12.9197C28.703 12.9133 29.1367 12.9683 29.4699 12.5444C29.4925 12.6413 29.551 12.9037 29.3987 13.1367C29.4797 13.0556 29.5994 13.0234 29.6156 13.0008C29.6221 13.1204 29.7353 13.4893 29.2563 14.3857C29.3856 14.2434 29.5378 14.2498 29.6737 14.2336C29.6802 14.402 29.7707 14.9682 29.5313 15.2725C29.3729 15.4797 29.1139 15.4149 29.1139 15.4149C29.1176 15.3696 29.1176 15.3242 29.1139 15.279C29.1074 15.1915 29.0751 15.1043 29.0979 15.046C28.9727 14.9888 28.8587 14.9099 28.7612 14.8128C28.4796 14.5474 28.1139 14.0945 28.0881 13.7579C28.0557 13.3824 28.3923 13.3016 28.3923 13.3016C28.3641 13.2763 28.3401 13.2468 28.3211 13.2141C28.3049 13.1593 28.2886 13.0718 28.224 13.0008Z" fill="#8C6228"/>
<path fill-rule="evenodd" clip-rule="evenodd" d="M25.7275 8.92838C25.7275 8.92838 25.7113 8.90577 25.624 9.00924C25.6403 8.90577 25.6565 8.80849 25.6628 8.71463C25.7042 8.62772 25.7576 8.54713 25.8216 8.47526C25.7729 8.57212 25.7405 8.65958 25.7405 8.65958C25.7405 8.65958 25.8604 8.43623 26.0351 8.30033C26.1548 8.20326 26.3069 8.15804 26.3716 8.06737C26.4428 7.9703 26.4266 7.95409 26.4428 7.93787C26.4428 7.93787 26.6015 7.83441 26.8443 7.52998C26.8765 7.49115 26.9251 7.44913 26.9576 7.4103C27.0124 7.38769 27.1419 7.32946 27.294 7.25158C27.4528 7.16433 27.6307 7.04466 27.7408 6.99558C27.9575 6.89852 28.1874 6.90833 28.2941 6.75601C28.3749 6.7334 28.4622 6.49063 28.4462 6.28369C28.5658 6.33212 29.1807 6.71398 29.3912 7.54897C29.5434 8.14118 29.2714 9.05383 29.1581 9.49414C29.0448 9.9345 29.0288 10.261 28.8701 10.4616C28.6693 10.7272 28.0223 11.1016 27.8636 11.287C27.7277 11.4391 27.32 11.8241 27.336 12.1023C27.3522 12.3095 27.6078 12.4223 27.663 12.4616C27.7183 12.5009 27.7178 12.549 27.8216 12.5256C27.9252 12.5021 27.9638 12.4543 28.0061 12.4543C28.0545 12.4608 28.0545 12.4706 28.0771 12.4706C28.0936 12.47 28.1098 12.4679 28.1258 12.464C28.1258 12.464 28.1096 12.7586 27.4203 12.848C27.3717 12.8546 27.3232 12.8706 27.2616 12.8804C27.3427 12.8416 27.391 12.8416 27.4786 12.7219C27.3815 12.7057 27.103 12.6894 27.0318 12.6669C27.0544 12.628 27.1288 12.5243 27.1903 12.4759C27.2454 12.4275 27.1839 12.4119 27.1355 12.437C27.0521 12.4938 26.9721 12.5553 26.8959 12.6214C26.815 12.6927 26.7438 12.7897 26.6143 12.8774C26.5755 12.7479 26.5819 12.502 26.7342 12.324C26.6952 12.3304 26.6208 12.4437 26.5497 12.421C26.5368 12.303 26.5445 12.1837 26.5723 12.0682C26.6111 11.9225 26.8215 11.667 26.8215 11.667L27.8376 9.85123L28.0543 8.4759L25.7275 8.92838Z" fill="#92723A"/>
<path fill-rule="evenodd" clip-rule="evenodd" d="M25.6739 9.00702C25.6739 9.00702 25.6188 9.04585 25.7289 9.12031C25.7127 9.14295 25.6739 9.22377 25.6252 9.27877C25.5704 9.34277 25.512 9.38249 25.4893 9.43749C25.4409 9.55077 25.402 9.62849 25.402 9.67713C25.402 9.72577 25.3859 10.0363 25.25 10.2369C25.2013 10.3081 25.1462 10.4279 25.1074 10.5087C25.0266 10.6509 24.9553 10.7647 24.9391 10.8287C24.9069 10.9419 24.8843 11.2526 24.8843 11.2526C24.8843 11.2526 24.9555 11.1651 24.9813 11.1329C24.9423 11.2138 24.9003 11.3009 24.8389 11.3659C24.8777 11.3334 24.991 11.2526 25.1819 11.0842C25.4473 10.8611 25.8616 10.4857 26.3666 10.1882C26.2142 10.2433 26.085 10.2433 25.9815 10.2595C26.0623 10.1787 26.7905 9.32422 27.1723 9.2434C27.1955 9.21395 27.207 9.17704 27.2048 9.13967L26.8777 9.10749L26.2142 9.24977L26.1174 8.73779L25.6739 9.00702Z" fill="#B18E3E"/>
<path fill-rule="evenodd" clip-rule="evenodd" d="M26.7282 11.9196C26.7282 11.9196 26.6407 12.0069 26.5599 12.2238C26.4976 12.1588 26.4443 12.0859 26.4012 12.0069C26.2815 11.8063 26.0972 11.5505 25.6666 11.6962C25.6603 11.5603 25.6505 11.489 25.6666 11.392C25.7379 11.376 25.9546 11.2012 26.1714 10.9455C26.3237 10.7708 26.466 10.57 26.5631 10.3144C26.6271 10.2658 26.7378 10.185 26.8831 10.091C27.0902 9.94877 27.3394 9.75441 27.3782 9.53768C27.2812 9.5765 27.074 9.67359 26.7632 9.65759C26.8831 9.60259 27.0674 9.54432 27.0448 9.30477C27.0935 9.27232 27.1323 9.24968 27.1323 9.24968C27.0957 9.2375 27.0574 9.23205 27.019 9.2335C27.0124 9.21086 27.0027 9.17868 26.9477 9.19468C26.8926 9.21068 26.8837 9.21086 26.8765 9.2335C26.8538 9.24014 26.7794 9.2335 26.7244 9.2725C26.6693 9.31159 26.5172 9.44059 26.459 9.46323C26.4816 9.42441 26.5138 9.36641 26.5138 9.36641C26.5138 9.36641 26.3553 9.38241 26.242 9.43041C26.0348 9.50168 25.7955 9.63114 25.5527 9.75723C25.5754 9.71841 25.5852 9.69323 25.6012 9.68595C25.6172 9.67868 25.6562 9.66995 25.6562 9.66332C25.6562 9.65677 25.6402 9.59932 25.6498 9.57614C25.7224 9.42232 25.808 9.27514 25.9058 9.13595C26.0191 8.98367 26.0417 8.76693 26.0417 8.76693L26.5368 8.51775L27.9284 8.19775L28.8315 8.25279L28.7182 8.87744L28.1848 9.96795L27.7286 10.9615L27.2074 11.5701L26.7282 11.9196Z" fill="#543E26"/>
<path fill-rule="evenodd" clip-rule="evenodd" d="M28.9843 9.21582C28.9843 9.21582 28.4405 9.88891 28.2884 9.99264C28.3855 9.78545 28.9843 8.55238 29.201 8.20934C29.1525 8.17051 29.0877 8.17051 29.2398 7.56934C29.1105 7.87334 29.0651 8.03205 28.9585 8.11291C28.8517 8.19376 28.8385 8.16795 28.7665 8.16795C28.78 8.14332 28.7856 8.11505 28.7825 8.0871C28.7825 8.0871 28.3261 8.03205 28.0145 8.03205C27.7027 8.03205 27.0858 8.20038 26.7425 8.33627C26.4708 8.44955 26.3186 8.44955 26.2216 8.52059C26.1245 8.60145 26.0695 8.68891 26.0209 8.71153C25.982 8.73414 25.7977 8.79238 25.7555 8.85382C25.7166 8.91782 25.652 8.98971 25.652 9.00593C25.652 9.02214 25.6358 9.04496 25.6845 9.02854C25.7005 9.02214 25.8204 8.95728 25.9563 8.87643C26.1405 8.77296 26.3639 8.65328 26.5258 8.58203C26.9885 8.3975 27.1343 8.42993 27.3412 8.3911C27.5579 8.35227 27.8687 8.2616 28.0756 8.2616C28.2828 8.2552 28.6745 8.26161 28.7652 8.27782C28.7263 8.31025 28.6939 8.34907 28.7101 8.48496C28.7101 8.52379 28.6776 8.56582 28.6461 8.65968C28.5493 8.92507 28.3647 9.36518 28.2621 9.58855C28.1198 9.89255 27.9581 10.1484 27.8781 10.3068C27.7981 10.4654 27.6221 10.8828 27.4478 11.1062C27.2735 11.3295 27.1825 11.4655 27.1278 11.5141C27.0732 11.5627 26.6811 11.8505 26.7104 11.9542C26.7816 11.9315 27.2315 11.7622 27.5581 11.3944C27.8847 11.0266 27.9498 10.8022 28.2054 10.6015C28.4609 10.4007 28.6616 10.0643 28.7814 9.78609C28.8816 9.52709 28.859 9.44627 28.9851 9.21645L28.9843 9.21582Z" fill="#806031"/>
<path fill-rule="evenodd" clip-rule="evenodd" d="M17.2663 14.2401C17.2663 14.2401 17.1952 14.5345 17.0332 14.6802C16.8747 14.8227 16.5931 14.9456 16.5609 15.1852C16.5221 15.4246 16.8424 15.5445 16.8424 15.5445C16.8424 15.5445 16.6675 15.8325 16.6675 16.0492C16.6675 16.2726 16.6612 16.3146 16.6838 16.5281C16.6581 16.5446 16.6362 16.5665 16.6197 16.5921C16.6197 16.5921 16.6358 16.7993 16.7944 16.9286C16.9532 17.0578 17.0889 17.1356 17.1697 17.1033C17.1821 17.1296 17.1929 17.1567 17.2022 17.1843C17.2022 17.1843 17.3221 16.8801 17.4029 16.6147C17.4838 16.3429 17.555 16.3816 17.5872 16.0159C17.6194 15.6503 17.9712 15.0224 17.9712 15.0224L18.2112 14.4858L17.8198 14.1816L17.2663 14.2401Z" fill="#B6903C"/>
<path fill-rule="evenodd" clip-rule="evenodd" d="M17.9929 14.7676C17.9122 14.8505 17.8377 14.9392 17.77 15.033C17.6666 15.1755 17.5857 15.3048 17.4336 15.36C17.2815 15.4153 17.1844 15.4148 17.194 15.5672C17.2037 15.7195 17.3461 15.7839 17.427 15.8616C17.5145 15.9424 17.5857 16.0783 17.5468 16.2307C17.5953 16.208 17.6827 16.182 17.7637 16.0073C17.8445 15.8326 18.41 14.7679 18.41 14.7679L17.9929 14.7676Z" fill="#685026"/>
<path fill-rule="evenodd" clip-rule="evenodd" d="M20.2241 12.3106C20.2241 12.3106 20.2725 12.1813 20.2241 12.0874C20.1755 11.9903 19.881 11.9579 19.7353 11.8478C19.5832 11.7346 19.3987 11.6558 19.2466 11.7056C19.2692 11.6505 19.3598 11.5306 19.2854 11.5047C19.2142 11.4822 18.949 11.6018 18.8777 11.6569C18.8065 11.7119 18.6446 11.7766 18.6124 11.8156C18.5801 11.8547 18.5249 11.9289 18.4925 11.8965C18.46 11.8738 18.444 11.8156 18.389 11.8478C18.3339 11.88 18.069 12.097 18.0201 12.2233C17.9713 12.3496 17.8614 12.6312 17.5314 12.9514C17.2014 13.2716 17.0588 13.4789 17.1559 13.5987C17.253 13.7183 17.2985 13.631 17.3147 13.7346C17.3271 13.8361 17.3217 13.9391 17.2985 14.0387C17.2597 14.207 17.1949 14.3656 17.2822 14.398C17.5056 14.4692 17.7226 14.334 17.7709 14.3754C17.868 14.4627 17.7159 14.7767 17.9457 14.8381C18.1788 14.9021 18.4087 14.783 18.4087 14.783L19.2564 14.3267L20.0719 13.8965L20.4893 13.0711L20.2655 12.3817L20.2228 12.3106H20.2241Z" fill="#D4B968"/>
<path fill-rule="evenodd" clip-rule="evenodd" d="M19.4248 14.2817C19.4248 14.2817 19.2824 14.065 19.4573 13.8738C19.6322 13.6827 19.8812 13.6021 19.9783 13.4824C19.9597 13.4596 19.935 13.4427 19.907 13.434C19.9714 13.3186 20.0697 13.2259 20.1885 13.1684C20.1402 13.1199 20.0753 13.0811 20.0043 13.0811C19.8455 13.0811 19.7483 13.1782 19.6027 13.1782C19.4604 13.1782 19.4443 13.1069 19.4443 13.1069C19.4443 13.1069 19.6838 13.0843 19.661 12.9775C19.6384 12.8642 19.597 12.8642 19.597 12.8642C19.597 12.8642 20.0597 12.6722 20.1405 12.5697C20.2214 12.4674 20.2118 12.3464 20.2281 12.298C20.2829 12.298 20.6033 12.1296 20.7328 12.2009C20.8623 12.2722 20.7716 12.4663 20.7716 12.4663C20.7716 12.4663 21.1635 12.1716 21.3632 11.8828C21.5379 11.899 21.6192 11.7632 21.7472 11.7632C21.9059 11.7632 22.1551 11.9799 22.2035 12.4426C22.2359 12.708 22.2844 12.8601 22.2359 13.3295C22.2134 13.5948 22.2197 14.1615 22.2999 14.4426C22.3548 14.666 22.4843 14.6434 22.4843 14.6434C22.4644 14.7114 22.425 14.7722 22.371 14.8181C22.2835 14.8989 22.2739 15.1126 22.2835 15.1935C22.2964 15.2526 22.3126 15.311 22.3322 15.3683C22.3322 15.3683 22.2287 15.4879 22.2026 15.569C22.1801 15.6498 22.0734 15.7049 21.9955 15.7049C21.9176 15.7049 21.9567 15.6983 21.8533 15.7049C21.7497 15.7115 21.7174 15.7275 21.6524 15.7049C21.5876 15.6823 21.5392 15.6563 21.5653 15.4489C21.5878 15.2417 20.7659 14.7596 20.7659 14.7596L19.4218 14.2806L19.4248 14.2817Z" fill="#CCA849"/>
<path fill-rule="evenodd" clip-rule="evenodd" d="M17.88 16.327C17.88 16.327 18.1744 16.7187 19.3848 16.7187C19.9608 16.7187 20.1616 16.6637 20.2809 16.6312C20.4104 16.5988 20.8957 16.4081 21.3845 15.8319C21.8245 15.311 21.7275 15.0974 21.7275 15.0974L21.4715 15.0586L20.6395 15.1719L18.1775 16.2203L17.8789 16.327H17.88Z" fill="#585136"/>
<path fill-rule="evenodd" clip-rule="evenodd" d="M18.7829 16.4244C18.7829 16.4244 17.7344 16.6575 17.7344 15.994C17.7344 15.3469 18.3816 14.6671 18.5436 14.5475C18.7119 14.4276 19.1132 14.2915 19.1132 14.2915H20.0808L20.2652 14.7802L20.1843 15.8351L18.7829 16.4244Z" fill="#252211"/>
<path fill-rule="evenodd" clip-rule="evenodd" d="M19.751 14.4888C19.751 14.4888 19.5505 14.3042 19.0941 14.5528C18.6378 14.8013 18.2687 15.3208 18.2461 15.7925C18.2236 16.2098 18.5892 16.5206 19.1587 16.5368C19.5826 16.5528 19.8385 16.5044 19.9679 16.4728C19.9356 16.4339 19.7672 16.2236 19.7672 16.2236L19.751 14.4888Z" fill="#C3B378"/>
<path fill-rule="evenodd" clip-rule="evenodd" d="M19.5539 14.5922C19.5539 14.5922 19.5055 14.5534 19.3619 14.631C19.2422 14.695 19.0675 14.8642 18.9316 14.9839C18.8442 15.0551 18.7891 15.0873 18.7396 15.1424C18.5388 15.382 18.3705 15.7737 18.4678 15.9678C18.5651 16.1619 18.8853 16.3852 19.7009 16.2331L19.5515 14.5924L19.5539 14.5922Z" fill="#E6D89C"/>
<path fill-rule="evenodd" clip-rule="evenodd" d="M19.2883 14.9942C19.2883 14.9942 19.1588 15.195 19.1588 15.5153C19.1588 15.8422 19.3434 16.3632 20.023 16.402C20.544 16.4344 20.8934 15.6512 21.2721 15.3471C21.56 15.1141 21.7347 15.1075 21.7347 15.1075C21.7347 15.1075 21.4404 14.7875 20.654 14.373C19.8773 13.9554 19.0067 13.9004 18.5342 14.5412C18.7575 14.5251 19.4793 14.3405 19.4793 14.3405L19.8321 14.4538L19.2883 14.9942Z" fill="#252211"/>
<path fill-rule="evenodd" clip-rule="evenodd" d="M20.3047 15.4183C20.2821 15.3698 20.2659 15.305 20.3597 15.289C20.4535 15.273 20.4956 15.2823 20.528 15.353C20.5604 15.4236 20.592 15.4824 20.544 15.5117C20.4956 15.5375 20.3696 15.5122 20.3047 15.4183ZM20.1526 14.9619C20.1526 14.9619 20.1202 14.9845 20.1364 14.9393C20.1428 14.8845 20.185 14.7872 20.2884 14.8101C20.3919 14.8329 20.3695 14.9459 20.3524 14.9783C20.3354 15.0108 20.249 15.0656 20.1842 15.0423C20.1759 15.0403 20.1684 15.0363 20.162 15.0306C20.1555 15.0251 20.1506 15.0181 20.1474 15.0102C20.1443 15.0023 20.143 14.9938 20.1438 14.9853C20.1445 14.9769 20.1473 14.9687 20.1517 14.9615L20.1526 14.9619Z" fill="#6F674D"/>
<path fill-rule="evenodd" clip-rule="evenodd" d="M11.3916 15.1683C11.3916 15.1683 11.6477 15.3603 11.9451 15.3529C12.2394 15.3462 12.6181 15.0422 12.7928 14.848C12.8963 14.7346 12.9848 14.615 13.0808 14.521C13.1619 14.4402 13.2167 14.4014 13.2555 14.3464C13.3106 14.2824 13.3688 14.162 13.3981 14.123C13.3268 14.178 13.2233 14.2753 13.1164 14.34C13.013 14.404 12.7896 14.5243 12.699 14.5567C12.6117 14.5891 11.7054 15.0687 11.7054 15.0687L11.3916 15.1683Z" fill="#AC924C"/>
<path fill-rule="evenodd" clip-rule="evenodd" d="M11.7832 12.7774C11.7832 12.7774 11.9255 12.6803 12.2007 12.6186C12.4661 12.5546 13.0001 12.5054 13.0001 12.5054L13.4402 12.6974L13.6149 13.3608L13.2949 14.0503L12.8872 14.3063L12.4243 13.562L11.7843 12.7786L11.7832 12.7774Z" fill="#9F8E57"/>
<path fill-rule="evenodd" clip-rule="evenodd" d="M11.207 13.3683L11.0547 13.482C11.0547 13.482 11.0937 13.4107 11.1259 13.194C11.1581 12.9773 11.3267 12.4496 11.5726 12.1455C11.8186 11.8413 11.8122 11.8575 11.8122 11.8575C11.7896 11.8533 11.7663 11.8541 11.744 11.8596C11.7217 11.8652 11.7008 11.8754 11.6827 11.8896C11.7151 11.818 11.9222 11.562 12.1294 11.434C12.3366 11.306 12.4174 11.2656 12.6341 11.37C12.851 11.4743 12.906 11.5285 13.0647 11.5221C13.2234 11.5157 13.3591 11.3474 13.3591 11.3474C13.3591 11.3474 13.3915 11.4508 13.2719 11.6905C13.1521 11.93 12.6796 12.4185 12.6796 12.4185L11.6957 13.0916L11.207 13.3683Z" fill="#EAC970"/>
<path fill-rule="evenodd" clip-rule="evenodd" d="M11.9355 12.6962C11.9355 12.6962 12.6476 12.7933 12.8643 12.5928C12.8707 12.6153 12.8968 12.6153 12.8968 12.6316C12.895 12.6438 12.8893 12.6551 12.8805 12.6638C12.9041 12.6601 12.9279 12.6579 12.9518 12.6574C12.9803 12.6659 13.0096 12.6713 13.0392 12.6736C13.0631 12.6731 13.0869 12.6709 13.1105 12.667C13.1082 12.6831 13.1028 12.6985 13.0944 12.7125C13.086 12.7264 13.075 12.7385 13.0618 12.7481C13.0943 12.7481 13.1258 12.7544 13.1258 12.7802C13.1258 12.8061 13.1322 12.884 13.0934 12.9001C13.0613 12.9091 13.027 12.9067 12.9964 12.8936C12.9989 12.9549 13.0156 13.0147 13.045 13.0685C13.109 13.1881 13.2456 13.3245 13.429 13.2852C13.429 13.2852 13.5258 13.5182 13.1182 14.036C13.0634 14.1072 13.0049 14.2042 12.9338 14.2851C12.9058 14.3463 12.8843 14.4103 12.8698 14.4761C12.8698 14.4761 13.5594 14.2107 13.7567 13.6054C13.9574 12.9971 13.9962 12.3984 13.9574 11.8386C13.9508 11.6799 13.925 11.5669 13.8862 11.4858C13.7891 11.2851 13.5171 11.3174 13.4072 11.4307C13.2485 11.5894 12.9831 11.9841 12.6143 12.2559C12.2388 12.5277 12.2238 12.5759 11.9355 12.6962Z" fill="#D7BC6B"/>
<path fill-rule="evenodd" clip-rule="evenodd" d="M11.0817 13.5705C11.0817 13.5705 10.9458 13.6514 10.8745 13.9545C10.8034 14.2651 10.9385 14.6438 11.0169 14.7635C11.0952 14.8831 11.2729 15.2102 11.6415 15.2264C11.7328 15.226 11.823 15.2072 11.9069 15.1714C12.0356 15.1124 12.1564 15.0373 12.2662 14.948C12.4249 14.8283 12.5542 14.7249 12.538 14.715C12.4992 14.6989 11.5607 13.9221 11.5607 13.9221L11.2078 13.5283L11.0817 13.5705Z" fill="#585136"/>
<path fill-rule="evenodd" clip-rule="evenodd" d="M11.9677 14.8578C11.9677 14.8578 12.1586 14.8418 12.2719 14.7706C12.3852 14.6993 11.6084 13.9292 11.6084 13.9292L11.6635 14.7612L11.9677 14.8578Z" fill="#453A25"/>
<path fill-rule="evenodd" clip-rule="evenodd" d="M11.1423 13.5111C11.1423 13.5111 11.0452 13.6956 11.0452 13.7442C11.029 13.9027 11.0776 14.4011 11.1165 14.5596C11.1553 14.7279 11.3656 14.9834 11.6376 14.9834C11.8057 14.9834 12.0389 14.88 12.0389 14.8541C12.0389 14.8218 11.7994 14.7901 11.7346 14.6697C11.6958 14.6057 11.6796 14.4465 11.6706 14.2857C11.6643 14.1821 11.6643 14.0689 11.7031 14.0297C11.7905 13.9326 11.8065 13.6541 11.8065 13.6541L12.1172 13.0771H11.7086L11.2199 13.3813L11.1423 13.5111Z" fill="#84754B"/>
<path fill-rule="evenodd" clip-rule="evenodd" d="M11.0225 13.6896C11.0225 13.6896 11.3425 13.2657 11.6309 13.1684C11.9193 13.0711 12.0484 13.1296 12.0484 13.1296L11.88 13.5601L11.6405 13.8255L11.6567 13.9614C11.6567 13.9614 11.6176 14.3207 11.8572 14.5698C12.0968 14.8189 12.2747 14.8094 12.3784 14.8094C12.4821 14.8094 12.7796 14.7219 12.9317 14.3627C13.0676 14.0262 13.1809 13.5947 12.9092 13.162C12.6436 12.7315 12.1745 12.7148 12.0838 12.7148C11.9931 12.7148 11.2812 12.7511 11.0225 13.6896Z" fill="#252211"/>
<path fill-rule="evenodd" clip-rule="evenodd" d="M19.2394 15.1297C19.1197 15.0746 19.233 14.7383 19.3527 14.6345C19.4724 14.5309 19.6245 14.4114 19.8901 14.395C19.9869 14.3886 20.0808 14.45 20.0648 14.5149C20.0422 14.6345 19.8739 14.8029 19.7217 14.9225C19.5114 15.0876 19.3753 15.1912 19.2394 15.1297Z" fill="#F7F7E7"/>
<path fill-rule="evenodd" clip-rule="evenodd" d="M12.7668 13.2939C12.8542 13.2875 12.9675 13.3579 12.9901 13.4526C13.0128 13.556 12.9351 13.7632 12.7668 13.7632C12.6308 13.7632 12.5596 13.5949 12.5596 13.5464C12.5611 13.5066 12.5723 13.4678 12.592 13.4331C12.5984 13.4233 12.6147 13.31 12.7668 13.2939Z" fill="#F8F6DE"/>
<path fill-rule="evenodd" clip-rule="evenodd" d="M11.5048 13.3682C11.5048 13.3682 11.2814 13.4716 11.178 13.6882C11.1041 13.8481 11.0817 14.027 11.114 14.2002C11.1302 14.281 11.2111 14.4815 11.2661 14.5528C11.3212 14.624 11.3956 14.6726 11.4506 14.6661C11.5056 14.6594 11.6187 14.5139 11.6187 14.4267C11.6187 14.3394 11.6254 13.9703 11.732 13.7696C11.8259 13.5691 11.5048 13.3682 11.5048 13.3682Z" fill="#D4C38B"/>
<path fill-rule="evenodd" clip-rule="evenodd" d="M11.5373 13.3527C11.4984 13.3753 11.4338 13.4078 11.4498 13.4498C11.466 13.4886 11.6019 13.5138 11.6506 13.6085C11.7056 13.7056 11.7056 13.809 11.6894 13.8577C11.7317 13.8376 11.77 13.8101 11.8027 13.7766C11.8739 13.6958 11.9611 13.5859 12.0356 13.5859C12.0842 13.5859 12.1327 13.6085 12.1781 13.6085C12.2494 13.6085 12.3204 13.5859 12.3302 13.5114C12.3462 13.4144 12.1943 13.3269 12.1069 13.3431C12.1231 13.2791 12.1457 13.1846 12.0744 13.1198C12.0032 13.0549 11.78 13.1684 11.7314 13.2009C11.6828 13.2332 11.5373 13.3527 11.5373 13.3527Z" fill="#E2D59D"/>
<path fill-rule="evenodd" clip-rule="evenodd" d="M16.68 20.1522L17.1589 20.0107L17.2948 20.1078C17.2948 20.1078 17.3917 20.315 17.544 20.3407C17.4954 20.4443 17.369 20.5327 17.3757 20.6062C17.3823 20.6796 17.4469 20.7357 17.4469 20.7357C17.4469 20.7357 17.0164 21.4476 17.8644 22.165C17.6637 22.2458 17.4081 22.357 17.2722 22.421C17.369 22.4437 17.5762 22.485 17.6637 22.5635C17.7511 22.642 17.7511 22.667 17.832 22.7157C17.9128 22.7643 17.9613 22.8289 17.9453 22.8579C17.8902 22.8255 17.7057 22.7287 17.6735 22.8191C17.6413 22.9096 16.8741 22.8741 16.8741 22.8741L15.5796 23.1233C15.5796 23.1233 15.628 22.9938 15.4921 22.8741C15.3337 22.7318 15.1395 22.8806 14.9324 22.722C14.6606 22.5148 14.6507 22.2753 14.5635 22.1848C14.6507 22.1298 14.8289 22.0489 15.2527 21.9928C15.2366 21.9604 15.1816 21.8634 15.2139 21.7761C15.2527 21.6628 15.4145 21.5916 15.366 21.4561C15.4373 21.4399 15.4696 21.4399 15.6477 21.2166C15.816 20.9932 15.9195 20.9447 16.0489 20.9286C16.1785 20.9123 16.2561 20.9286 16.4957 20.7052C16.6637 20.5467 16.6089 20.4107 16.6089 20.4107C16.6089 20.4107 16.7187 20.3756 16.68 20.1522Z" fill="#CBAC5A"/>
<path fill-rule="evenodd" clip-rule="evenodd" d="M15.2653 20.2249C15.2718 20.1925 15.2978 20.1763 15.4725 20.1925C15.6473 20.2087 16.7541 20.089 17.0551 20.0728C17.3593 20.0502 18.4304 20.0662 18.9516 20.1763C19.4728 20.2863 20.0002 20.4158 20.2557 20.4805C20.5117 20.5517 20.5923 20.5773 20.5825 20.6097C20.5762 20.6421 20.5185 20.6737 20.4854 20.6647C20.4533 20.6584 19.6053 20.3994 19.3433 20.3447C19.0813 20.2902 18.1748 20.144 17.6793 20.1527C17.2165 20.1594 17.032 20.1464 16.6405 20.1917C16.2489 20.2403 15.6016 20.3049 15.4074 20.2791C15.2154 20.2565 15.2552 20.2565 15.265 20.224L15.2653 20.2249Z" fill="#D6BC6F"/>
<path fill-rule="evenodd" clip-rule="evenodd" d="M17.8709 22.7609C17.8709 22.7609 18.5344 23.1201 18.774 23.5602C18.9486 23.8871 18.6705 24.049 18.6705 24.049C18.6705 24.049 19.046 24.049 18.9974 24.2561C18.9747 24.3853 18.3501 24.7348 17.9325 24.9193C17.5087 25.1039 17.5249 25.0942 17.3177 25.1265C17.117 25.1589 16.5668 25.0625 16.4535 25.2235C16.3403 25.3846 16.3895 25.5506 16.4211 25.5764C16.4535 25.5991 16.7157 25.6314 16.7157 25.6314C16.7157 25.6314 16.6607 25.7835 16.1171 25.7998C15.5735 25.816 15.4375 25.8546 15.405 25.9131C15.3725 25.9679 15.5085 25.9357 15.7578 25.9771C16.007 26.0159 16.3565 26.0411 16.3565 26.0411C16.3565 26.0411 16.2432 26.1381 15.9488 26.2158C15.6122 26.303 15.0845 26.3841 14.9261 26.4811C15.0069 26.5361 15.1268 26.6171 15.1821 26.6234C15.0462 26.6559 14.855 26.7271 14.8228 26.753C14.8713 26.7853 14.9361 26.8241 14.9361 26.8241C14.9361 26.8241 14.6641 27.151 14.5056 27.2321C14.3471 27.3131 13.4345 27.7368 13.1205 27.656C12.3373 27.4488 12.2402 26.5912 12.0493 26.5266C11.7613 26.4295 11.6254 26.6234 11.3696 26.4875C11.4829 26.4067 11.5445 26.3582 11.6642 26.3032C11.5347 26.2392 10.8648 25.8145 10.8648 25.8145C10.7948 25.6618 10.7171 25.5128 10.6319 25.368C10.5025 25.1446 10.3119 24.8468 10.169 24.5846C9.85837 24.0086 9.84218 23.7432 9.56055 23.4164C9.60918 23.3524 9.77727 23.3614 9.77727 23.3614L12.1367 24.1381L16.3205 24.2593L17.4085 22.7061L17.8709 22.7609Z" fill="#DFC677"/>
<path fill-rule="evenodd" clip-rule="evenodd" d="M11.6738 25.1303C11.6991 25.1585 11.7286 25.1825 11.7611 25.2016C11.8422 25.2566 11.9618 25.3215 12.0427 25.4183C12.0751 25.3699 12.156 25.2825 12.2987 25.4183C12.4415 25.5542 12.6187 25.4574 12.729 25.4896C12.8423 25.5286 12.8486 25.5446 12.8486 25.5446C12.8486 25.5446 12.9126 25.4896 13.0558 25.4314C13.1433 25.3989 13.2467 25.3763 13.36 25.3441C13.4635 25.3215 13.5767 25.289 13.6546 25.289C13.7259 25.3375 13.9815 25.609 15.0074 25.2082C15.9751 24.8327 16.1982 24.7907 16.3601 24.8487C16.3764 24.8099 16.3926 24.7355 16.6417 24.7453C16.6417 24.6418 16.4346 24.2889 16.4346 24.2889L15.2922 23.8975H14.6674L12.7936 24.2406L11.7554 24.8329L11.6745 25.1316L11.6738 25.1303Z" fill="#C4A859"/>
<path fill-rule="evenodd" clip-rule="evenodd" d="M11.0488 24.4723C11.0488 24.4723 11.0715 24.647 11.3305 24.8315C11.5865 25.0158 11.6668 25.1259 11.6668 25.1259C11.6668 25.1259 11.7156 25.0619 11.7544 24.9966C11.7932 24.9254 11.8256 24.8446 11.8902 24.8219C12.0197 24.7668 12.3141 24.8704 12.379 24.8541C12.434 24.8381 12.4178 24.7248 12.476 24.7248C12.6119 24.7182 12.6992 24.8121 12.7478 24.8121C12.7965 24.8121 12.9159 24.8057 12.9322 24.7799C12.9484 24.7541 12.9547 24.4853 13.1393 24.3557C13.34 24.2135 13.586 24.2749 13.6513 24.3074C13.6513 24.3557 13.6577 24.4756 13.7872 24.4821C13.9166 24.4885 13.9295 24.4658 14.0432 24.5046C14.1569 24.5435 14.2924 24.4983 14.3538 24.689C14.4088 24.673 14.5384 24.6568 14.5059 24.4723C14.5699 24.4238 14.6258 24.3914 14.7619 24.2005C14.7944 24.152 14.8492 24.097 14.8914 24.0257C15.0046 24.0257 15.1406 24.0031 15.3217 24.1616C15.2666 24.2005 15.2342 24.2256 15.2182 24.2651C15.2656 24.312 15.3088 24.3629 15.3476 24.4172C15.3962 24.4812 15.4286 24.5597 15.49 24.5759C15.6259 24.6147 15.8493 24.5597 16.0985 24.5759C16.338 24.5922 16.5386 24.6794 16.626 24.7345C16.6585 24.7185 16.6585 24.7118 16.7393 24.728C16.8202 24.7443 16.8816 24.7506 16.7944 24.6472C16.8427 24.6698 16.8978 24.7185 16.9465 24.6698C16.9951 24.6212 17.0337 24.5501 17.1696 24.5339C17.3055 24.5177 17.3541 24.5403 17.4092 24.398C17.4805 24.2233 17.2345 24.2233 17.2345 24.2233C17.2345 24.2233 17.3477 24.1196 17.474 23.9837C17.6261 23.8415 17.8008 23.6569 17.8428 23.4304C17.9141 23.0128 17.5065 22.958 17.5065 22.958L15.5291 23.5665L13.1116 23.4466L11.0501 24.4725L11.0488 24.4723Z" fill="#927D49"/>
<path fill-rule="evenodd" clip-rule="evenodd" d="M9.27209 18.7598C9.27209 18.7598 9.20809 18.8407 9.16864 19.0316C9.12918 19.2226 9.146 19.1999 9.11355 19.3358C9.08117 19.4717 8.68287 20.8245 8.8322 21.2808C8.98154 21.7371 9.24009 21.9055 9.40182 22.2743C9.43427 22.3551 9.46582 22.4037 9.48264 22.475C9.53773 22.7144 9.48927 22.8989 9.55391 23.1385C9.57655 23.2194 9.635 23.3132 9.72227 23.4103C9.91427 23.6108 10.2272 23.8017 10.3623 23.9377C10.5529 24.1384 10.8249 24.5463 11.1712 24.5849C11.3557 24.6076 11.6179 24.5299 11.8346 24.4007C12.0266 24.2808 12.1453 24.1126 12.3466 24.0166C12.4889 23.9454 12.6411 23.9196 12.7769 23.8871C13.0585 23.8321 13.3144 23.8231 13.4665 23.8547C13.6994 23.9033 14.2495 24.0717 14.5545 24.0717C14.7926 24.0678 15.0295 24.0352 15.2599 23.9746C15.7226 23.8387 16.2825 23.6055 16.6515 23.502C16.8683 23.438 17.043 23.4212 17.2211 23.3824C17.5254 23.3111 17.7809 23.214 17.9266 23.0295C17.8295 22.9162 17.7098 22.7415 17.0624 22.7479C16.3279 22.7641 15.4799 23.1718 15.0624 23.2367C14.6449 23.3015 14.4638 23.3563 13.9976 23.188C13.5407 23.018 13.5255 22.9056 13.5255 22.9056C13.5255 22.9056 13.0457 22.57 12.845 21.7145C12.6443 20.859 12.845 20.2357 13.3662 19.6432C13.5021 19.4911 13.4696 19.3552 13.4696 19.3552C13.4696 19.3552 13.8127 18.8925 13.7188 18.4592C13.6154 18.0287 12.9519 18.1162 12.9519 18.1162L9.27209 18.7598Z" fill="#6E6342"/>
<path fill-rule="evenodd" clip-rule="evenodd" d="M9.82539 20.2007C9.79693 20.2543 9.78348 20.3147 9.78657 20.3754C9.79302 20.4627 9.81902 20.576 10.081 20.8317C10.3044 21.0549 10.2557 21.304 10.2557 21.304C10.2557 21.304 10.3681 21.3267 10.6732 21.184C10.9127 21.0707 10.9932 21.2714 10.9932 21.2714C11.0629 21.2348 11.1386 21.2107 11.2166 21.2001C11.2873 21.1936 11.3557 21.1718 11.4171 21.1361C11.4171 21.1361 11.6987 21.4241 11.9447 21.56C12.168 21.68 12.2976 21.7608 12.4076 21.68C12.5111 21.6087 12.5111 21.463 12.5045 21.3983C12.4787 21.3387 12.4463 21.2821 12.4076 21.23C12.3364 21.1265 12.2231 21.0067 12.2156 20.91C12.1994 20.6869 12.3839 20.4212 12.3449 20.3566C12.3058 20.292 12.1606 20.2758 11.8013 20.4052C11.4293 20.5281 9.82393 20.2013 9.82393 20.2013L9.82539 20.2007Z" fill="#39331F"/>
<path fill-rule="evenodd" clip-rule="evenodd" d="M10.6734 21.6478C10.6734 21.6478 10.4892 21.4731 10.5538 20.6251C10.632 20.624 10.7101 20.6316 10.7867 20.6477C10.7867 20.6477 10.8872 21.3048 10.6734 21.6478Z" fill="#292311"/>
<path fill-rule="evenodd" clip-rule="evenodd" d="M9.35962 18.1132C9.38535 18.0942 9.40917 18.0728 9.43089 18.0492C9.36689 18.1689 9.07139 18.6478 9.31099 19.4019C9.55053 20.1527 10.1523 20.7125 10.8934 20.7385C11.6346 20.7645 12.0242 20.4018 12.4695 19.8583C12.6443 19.6416 12.8451 19.3696 13.023 19.1852C13.2883 18.897 13.4955 18.8161 13.4955 18.5379C13.4955 17.9684 12.9129 17.7126 12.0553 17.457C11.1977 17.2015 10.4242 17.233 10.0229 17.4079C9.63135 17.5987 9.46335 17.7991 9.35962 18.1132Z" fill="#252211"/>
<path fill-rule="evenodd" clip-rule="evenodd" d="M12.1139 21.9028L12.1779 21.8704C12.1779 21.8704 12.1939 21.6143 12.2976 21.6212C12.4011 21.6374 12.4497 21.7735 12.4399 21.822C12.4335 21.8704 12.4076 21.9514 12.304 21.9416C12.1681 21.9449 12.1139 21.9028 12.1139 21.9028Z" fill="#3F3824"/>
<path fill-rule="evenodd" clip-rule="evenodd" d="M11.8252 20.8161C11.8252 20.8161 11.8892 20.7934 11.9675 20.8711C12.0315 20.8711 12.3106 20.8387 12.398 20.8937C12.4855 20.9488 12.5113 20.9971 12.5113 20.9971C12.5113 20.9971 12.1845 21.0684 12.0063 20.9971C11.8252 20.9357 11.8252 20.8161 11.8252 20.8161Z" fill="#2D2815"/>
<path fill-rule="evenodd" clip-rule="evenodd" d="M13.265 20.8636C13.265 20.8474 13.0903 20.7278 12.9058 20.6887C12.8733 20.6824 12.8667 20.705 12.8418 20.705C12.8255 20.6985 12.8191 20.6499 12.8191 20.6499L12.7141 20.7052C12.7141 20.7052 12.6979 20.7278 12.753 20.7692C12.8014 20.808 12.8825 20.8404 12.9051 20.9051C12.9278 20.9697 12.9278 20.9923 12.9376 21.0021C12.9439 21.0085 13.0572 21.0021 13.1123 20.9697C13.1673 20.9373 13.2717 20.885 13.265 20.8636Z" fill="#82764F"/>
<path fill-rule="evenodd" clip-rule="evenodd" d="M11.6309 21.5209C11.6309 21.5209 11.6631 21.2978 11.88 21.288C12.1032 21.2717 12.1455 21.4885 12.1455 21.4885L12.016 21.618C12.016 21.6148 11.9189 21.4789 11.632 21.5209H11.6309Z" fill="#2D2816"/>
<path fill-rule="evenodd" clip-rule="evenodd" d="M13.0385 20.56C13.0385 20.56 12.9187 20.6895 12.6535 20.7284C12.6309 20.6959 12.5823 20.6313 12.6535 20.5277C12.7248 20.4243 12.8056 20.3918 12.8865 20.4241C12.9222 20.4298 12.9554 20.4457 12.9824 20.4698C13.0094 20.4939 13.0288 20.5252 13.0385 20.56Z" fill="#574F35"/>
<path fill-rule="evenodd" clip-rule="evenodd" d="M13.5275 20.7178C13.5341 20.6855 13.5115 20.679 13.5275 20.6628C13.5435 20.6466 13.6312 20.6144 13.6474 20.6304C13.6537 20.637 13.6474 20.6628 13.6474 20.6944C13.6474 20.7259 13.6474 20.7584 13.6312 20.7816C13.6086 20.8141 13.5439 20.8303 13.5115 20.8206C13.4791 20.8111 13.4727 20.7656 13.4727 20.7566C13.4887 20.7503 13.5275 20.7341 13.5275 20.7178ZM14.08 20.3685C14.08 20.3522 14.1351 20.3198 14.1675 20.3198C14.2159 20.3198 14.2159 20.3586 14.2226 20.3685C14.2386 20.3748 14.2386 20.3618 14.2547 20.391C14.2709 20.4203 14.2937 20.4719 14.2774 20.5043C14.2609 20.5367 14.1965 20.5591 14.1805 20.5527C14.1579 20.5366 14.0867 20.391 14.08 20.3685Z" fill="#82764F"/>
<path fill-rule="evenodd" clip-rule="evenodd" d="M12.9678 20.7922C12.9678 20.7922 13.039 20.8082 13.1361 20.8893C13.1037 20.9119 13.055 20.9377 13.055 20.9377C13.055 20.9377 13.0487 20.8634 12.9678 20.7922Z" fill="#6E6342"/>
<path fill-rule="evenodd" clip-rule="evenodd" d="M12.8092 20.081C12.793 20.065 12.8576 20.0262 12.8965 20.0326C12.9353 20.0389 12.9516 20.065 12.9936 20.0714C13.0356 20.0778 13.0422 20.0552 13.0576 20.0389C13.0729 20.0228 13.1288 20.0326 13.1384 20.0389C13.1444 20.0461 13.1498 20.0537 13.1546 20.0616C13.1553 20.0493 13.1585 20.0372 13.164 20.0262C13.1696 20.0152 13.1774 20.0055 13.1868 19.9976C13.1993 19.9885 13.2136 19.9823 13.2287 19.9795C13.2438 19.9767 13.2595 19.9773 13.2743 19.9814C13.2807 20.0039 13.3131 20.0848 13.3067 20.101C13.3003 20.1173 13.2033 20.1401 13.1868 20.1237C13.203 20.1627 13.2743 20.2436 13.2839 20.2596C13.2935 20.2756 13.2126 20.3146 13.1805 20.3082C13.1352 20.305 12.8568 20.1431 12.8084 20.0817L12.8092 20.081ZM13.2331 19.5438C13.2271 19.5275 13.2156 19.5138 13.2007 19.5049C13.1781 19.4986 13.1036 19.5049 13.1036 19.5438C13.1036 19.5827 13.1676 19.7998 13.2396 19.9128C13.3206 20.0262 13.3754 20.1198 13.4305 20.1458C13.4477 20.1538 13.4674 20.1548 13.4854 20.1488C13.5034 20.1428 13.5185 20.1301 13.5276 20.1134C13.5339 20.0972 13.5501 19.9775 13.5437 19.6959C13.5374 19.4143 13.5276 19.1425 13.5113 19.1263C13.4951 19.1101 13.4305 19.1103 13.4078 19.1425C13.3852 19.1748 13.2397 19.4954 13.2331 19.5438Z" fill="#585136"/>
<path fill-rule="evenodd" clip-rule="evenodd" d="M12.9446 21.2008C12.9446 21.2008 12.8313 21.1295 12.7212 21.1781C12.6177 21.2268 12.6241 21.4177 12.6241 21.4177C12.6474 21.4268 12.6726 21.43 12.6974 21.4272C12.7222 21.4244 12.746 21.4156 12.7666 21.4015C12.8379 21.353 12.9284 21.272 12.9446 21.2008Z" fill="#574F35"/>
<path fill-rule="evenodd" clip-rule="evenodd" d="M13.1587 21.4572C13.1524 21.3932 13.0947 21.3932 13.0947 21.3601C13.0987 21.3443 13.1078 21.3303 13.1207 21.3203C13.1336 21.3103 13.1495 21.3049 13.1657 21.3051C13.1982 21.3051 13.2297 21.3439 13.2695 21.3691C13.3083 21.3917 13.3665 21.4331 13.3729 21.4824C13.3793 21.5317 13.3089 21.6667 13.2306 21.6667C13.1524 21.6667 13.1755 21.5209 13.1594 21.4563L13.1587 21.4572ZM13.7834 21.3697C13.7834 21.3697 13.6539 21.4086 13.6635 21.3697C13.6731 21.3308 13.7025 21.3213 13.7445 21.3213C13.7659 21.2989 13.7946 21.285 13.8254 21.2822C13.843 21.2814 13.8603 21.2872 13.8738 21.2985C13.8738 21.2985 13.9613 21.2597 13.9871 21.2822C14.0129 21.3048 13.9937 21.3048 14.0097 21.3308C14.0301 21.3597 14.0435 21.393 14.0487 21.4279C14.0487 21.4537 13.9517 21.5088 13.8738 21.4992C13.7834 21.4797 13.7994 21.3859 13.7834 21.3697ZM14.5373 21.224C14.5373 21.224 14.5761 21.2466 14.5439 21.2727C14.5213 21.2953 14.408 21.3367 14.3107 21.3439C14.2136 21.3439 14.1264 21.3599 14.1264 21.3277C14.1264 21.2955 14.2073 21.2306 14.2557 21.2144C14.2654 21.2022 14.2777 21.1924 14.2917 21.1857C14.3058 21.179 14.3212 21.1755 14.3367 21.1756C14.3755 21.1756 14.5275 21.1594 14.5697 21.1529C14.6085 21.1464 14.641 21.1689 14.6182 21.2014C14.6085 21.224 14.5373 21.224 14.5373 21.224ZM14.7606 20.2247C14.7606 20.2247 14.712 20.3282 14.6572 20.3282C14.6022 20.3217 14.6022 20.3056 14.6022 20.2894C14.6022 20.2667 14.6572 20.2085 14.6505 20.1923C14.6345 20.1923 14.5955 20.1923 14.6022 20.1535C14.6022 20.121 14.6572 20.0822 14.7056 20.0895C14.7422 20.0594 14.7877 20.0424 14.8351 20.041C14.8902 20.041 14.9385 20.057 14.9385 20.0895C14.9385 20.1219 14.8745 20.1929 14.8511 20.2094C14.8253 20.2352 14.7928 20.2514 14.7606 20.2247ZM14.0227 22.1373C14.0227 22.1373 13.9587 22.1439 13.9587 22.1761C13.9587 22.1923 13.9747 22.1923 13.9975 22.1827C14.0107 22.182 14.0237 22.1797 14.0364 22.1761C14.0428 22.1827 14.0428 22.2149 14.0915 22.2149C14.1314 22.2096 14.1698 22.1964 14.2047 22.1761C14.2435 22.1601 14.2759 22.1437 14.2759 22.1121C14.2597 22.0571 14.2273 22.031 14.1789 22.031C14.1541 22.0295 14.1294 22.0351 14.1076 22.0473C14.1076 22.0473 14.0915 22.0148 14.0364 22.0473C13.9814 22.0797 13.9877 22.0797 14.0039 22.0959C14.033 22.1217 14.0234 22.1386 14.0234 22.1386L14.0227 22.1373ZM13.6571 22.4739C13.6571 22.4577 13.7379 22.4253 13.7605 22.4351C13.7832 22.4415 13.8478 22.5644 13.8478 22.5774C13.8478 22.5937 13.7669 22.6325 13.7345 22.6325C13.7021 22.6325 13.6473 22.5774 13.6473 22.5685C13.6473 22.562 13.6861 22.5525 13.6861 22.5458C13.6957 22.5298 13.6571 22.4902 13.6571 22.4739ZM13.4011 22.0014C13.4173 21.995 13.4173 21.9787 13.4399 21.9626C13.447 21.9578 13.455 21.9548 13.4635 21.9537C13.4719 21.9527 13.4805 21.9535 13.4885 21.9562C13.4943 21.946 13.5022 21.9372 13.5116 21.9305C13.5212 21.9237 13.5321 21.9191 13.5435 21.9171C13.5824 21.9107 13.6148 21.9171 13.6075 21.9334C13.6075 21.982 13.64 22.0142 13.64 22.053C13.64 22.0918 13.6174 22.1405 13.5365 22.1729C13.4557 22.1956 13.3456 22.1956 13.3294 22.1891C13.3132 22.1827 13.297 22.1178 13.3132 22.0855C13.3294 22.053 13.3751 22.0177 13.4011 22.0014Z" fill="#82764F"/>
<path fill-rule="evenodd" clip-rule="evenodd" d="M13.5039 22.0225C13.5039 22.0225 13.4489 22.0549 13.4489 22.0711C13.444 22.0867 13.4419 22.1031 13.4425 22.1196C13.4425 22.1291 13.5138 22.1131 13.5234 22.1033C13.5266 22.0969 13.5039 22.0393 13.5039 22.0225Z" fill="#6E6342"/>
<path fill-rule="evenodd" clip-rule="evenodd" d="M13.0228 21.8704C13.0549 21.877 13.11 21.8704 13.152 21.8866C13.1845 21.9028 13.207 21.9352 13.1747 21.9741C13.1422 22.0129 13.1107 22.0712 13.0388 22.0613C12.9579 22.0549 12.8802 22.0129 12.8802 21.9804C12.8789 21.96 12.8817 21.9393 12.8883 21.92C12.8949 21.9005 12.9054 21.8826 12.919 21.8672C12.9515 21.8414 12.9677 21.8576 13.0228 21.8704Z" fill="#585136"/>
<path fill-rule="evenodd" clip-rule="evenodd" d="M12.9841 21.9033C12.9841 21.9033 12.8806 21.9841 12.8546 22.0231C12.8222 22.062 12.6637 22.2625 12.6152 22.3046C12.6313 22.2761 12.6497 22.2491 12.6701 22.2237C12.6061 22.2646 12.5582 22.3263 12.5342 22.3984C12.4953 22.5183 12.7512 22.583 12.9192 22.6316C13.0873 22.6802 13.1524 22.6956 13.1524 22.6956C13.0905 22.6026 13.0374 22.504 12.9937 22.4012C12.9297 22.249 12.8966 22.2329 12.9387 22.1616C12.9711 22.0904 13.0197 22.042 13.0197 21.9869C13.0003 21.9357 12.9841 21.9033 12.9841 21.9033Z" fill="#574F35"/>
<path fill-rule="evenodd" clip-rule="evenodd" d="M9.2944 22.1583C9.31795 22.1627 9.34213 22.1627 9.36567 22.1583C9.41404 22.1517 9.91904 21.9663 10.4466 21.9996C10.8416 22.0235 11.233 22.0878 11.6149 22.1916C12.2783 22.3663 13.1035 22.7126 13.6374 22.9101C13.7798 22.965 13.919 23.0622 14.0214 23.1009C14.4293 23.2596 14.4453 23.2596 14.6849 23.3016C14.9665 23.3404 15.2545 23.2466 15.5555 23.182C15.9244 23.1009 16.5554 23.0621 17.1088 22.9811C17.2878 22.9564 17.4642 22.9163 17.6364 22.8615C17.6364 22.8615 17.1963 23.3016 16.1411 23.4601C15.7146 23.5249 15.2812 23.5303 14.8532 23.4763C14.5166 23.4439 14.2934 23.3952 14.1251 23.3469C13.9342 23.2918 13.5425 23.1461 13.0604 23.0269C12.7238 22.9393 12.3483 22.8747 11.9179 22.7939C10.8564 22.5995 9.7044 22.3763 9.29395 22.1596L9.2944 22.1583Z" fill="#252211"/>
<path fill-rule="evenodd" clip-rule="evenodd" d="M8.1034 20.1582C7.8474 20.3749 7.57583 20.5821 7.31065 20.7827L6.51129 21.3968C6.23951 21.5974 5.97412 21.8046 5.70212 22.0053C5.43012 22.206 5.15854 22.3967 4.87012 22.5813C5.12612 22.3646 5.39769 22.1637 5.66948 21.9665C5.94126 21.7691 6.22308 21.5757 6.48526 21.3755L7.28463 20.7605C7.55961 20.5599 7.825 20.3523 8.1034 20.1582ZM6.68921 22.4237C6.68921 22.4237 6.97721 22.184 7.33646 21.8477C7.78297 21.4303 8.32996 20.8961 8.50468 20.7993L6.68921 22.4237Z" fill="#CFB66C"/>
<path fill-rule="evenodd" clip-rule="evenodd" d="M6.68945 22.4232C6.83196 22.2808 6.98406 22.1417 7.13617 22.0056L7.36913 21.8051C7.44039 21.7411 7.52145 21.6692 7.59249 21.598C7.73479 21.4556 7.87409 21.3034 8.01639 21.1578C8.08692 21.0847 8.16148 21.0155 8.23974 20.9507C8.27887 20.9161 8.32233 20.8867 8.36903 20.8633C8.40806 20.8406 8.45009 20.7993 8.50492 20.792C8.47271 20.8406 8.43388 20.8633 8.40145 20.9053C8.36263 20.9377 8.3302 20.9765 8.29799 21.0087C8.22674 21.08 8.14588 21.1446 8.07463 21.2094C7.92252 21.339 7.76401 21.4654 7.61191 21.601C7.4598 21.7364 7.31751 21.8825 7.16518 22.0184C7.00028 22.1577 6.84817 22.293 6.68945 22.4232ZM8.62482 21.1286C8.62482 21.1286 7.56988 22.1612 7.35292 22.3293L8.62482 21.1286Z" fill="#CFB66C"/>
<path fill-rule="evenodd" clip-rule="evenodd" d="M8.62443 21.1294C8.52953 21.2392 8.42778 21.3429 8.31979 21.44L7.99979 21.7442C7.89633 21.8477 7.79905 21.9514 7.68918 22.0548C7.5759 22.1518 7.47243 22.2468 7.35254 22.3364L7.66316 22.0322C7.76683 21.9288 7.88011 21.8415 7.99019 21.7378L8.3008 21.4336C8.40748 21.3269 8.51116 21.2232 8.62443 21.1294ZM8.67286 21.6892C8.57562 21.9606 8.46104 22.2254 8.32982 22.4821C8.05803 23.0259 7.65035 23.7054 7.47222 24.0518L8.67286 21.6892Z" fill="#CFB66C"/>
<path fill-rule="evenodd" clip-rule="evenodd" d="M8.67303 21.6885C8.67303 21.8082 8.6406 21.9118 8.60178 22.0153C8.56393 22.1188 8.52078 22.2204 8.47249 22.3196C8.42386 22.4166 8.36881 22.5203 8.31378 22.6141C8.25873 22.708 8.1941 22.8048 8.14546 22.9021L7.81863 23.4781C7.70535 23.6701 7.59527 23.8632 7.47559 24.0477C7.55644 23.8406 7.66652 23.6465 7.7702 23.4556C7.88349 23.2636 7.98695 23.0716 8.0902 22.8729C8.14061 22.7739 8.18597 22.6725 8.22609 22.5689C8.27452 22.4652 8.32295 22.3682 8.36199 22.2743C8.41041 22.1708 8.44924 22.0736 8.49789 21.9799C8.5527 21.8794 8.59858 21.7824 8.67303 21.6885Z" fill="#CFB66C"/>
<path fill-rule="evenodd" clip-rule="evenodd" d="M9.82541 24.3428C9.82541 24.3428 9.50541 24.7667 9.53741 25.3039C9.62459 25.0225 9.73468 24.592 9.82541 24.3428ZM10.1296 24.7678C10.1296 24.7678 10.0163 25.9198 9.92241 26.4861C10.0551 25.8314 10.081 25.8865 10.1296 24.7678ZM12.2492 26.5542C12.2492 26.5542 11.7703 27.9622 11.7605 28.3535C11.8642 27.9511 12.0648 27.1291 12.2492 26.5531V26.5542Z" fill="#DEC270"/>
<path fill-rule="evenodd" clip-rule="evenodd" d="M13.3691 24.2559C13.3691 24.2559 14.1459 25.5374 14.7285 26.6311C14.5708 26.0808 14.2081 25.0712 13.3691 24.2559Z" fill="#CBAF59"/>
<path fill-rule="evenodd" clip-rule="evenodd" d="M15.4561 26.1416C15.8825 26.8954 16.2671 27.6722 16.6081 28.4684C16.5433 27.9182 16.3684 26.9765 15.4561 26.1416Z" fill="#E3C677"/>
<path fill-rule="evenodd" clip-rule="evenodd" d="M21.5926 28.0326C21.7218 27.9517 21.9777 27.5115 22.201 27.4016C22.4242 27.2883 22.5925 27.2656 22.7932 27.0423C22.9937 26.8091 23.0492 26.6668 23.4889 26.4826C24.1039 26.2169 23.6809 25.8739 23.6809 25.8739C23.7487 25.8074 23.8211 25.7457 23.8977 25.6896C24.0564 25.5699 24.2407 25.4242 24.2247 25.1684C24.2021 24.7381 24.1212 24.1135 23.7684 23.751C24.1114 23.6797 24.7683 23.6313 25.1764 23.5278C25.6487 23.408 25.8657 23.2396 25.8657 23.2396C25.8657 23.2396 25.5938 22.7769 26.034 22.311C26.4741 21.8451 26.8334 21.5666 27.0987 21.0456C26.7946 21.0066 26.3307 20.845 25.1472 21.2946C25.211 21.3247 25.2727 21.3593 25.3317 21.3982C25.3317 21.3982 24.6036 21.5989 24.3382 21.8223C23.8753 22.2137 23.817 22.5342 23.3155 22.7737C22.8139 23.0133 22.3089 22.9485 21.8917 23.1426C21.4744 23.3367 21.4127 23.5018 21.2604 23.5731C21.2928 23.6119 21.254 23.6766 21.3155 23.7316C21.2767 23.7866 21.0501 24.1555 20.8203 24.1555C20.8429 24.2429 21.037 24.3076 21.037 24.3076C21.037 24.3076 20.8947 24.4113 20.5323 24.4371C20.7167 24.6291 20.8916 24.8384 21.3737 25.1426C21.3348 25.2235 21.1729 25.3433 21.2378 25.4955C21.3091 25.6476 21.4938 25.8546 22.2313 26.023C21.8558 26.039 21.4159 26.1265 20.8233 26.0456C20.2311 25.9744 20.134 25.9324 19.7684 26.023C19.8072 26.0618 19.9107 26.0618 20.0013 26.1653C19.9043 26.1717 19.2958 26.094 19.0887 26.366C18.8719 26.6475 18.7781 27.1104 18.7943 27.421C18.681 27.476 18.5709 27.5731 18.6259 27.7738C18.681 27.9746 18.969 28.0392 19.1536 28.1653C19.3378 28.3012 19.3541 28.3496 19.529 28.3174C19.7133 28.2786 19.9851 28.0943 20.1438 28.0943C20.3026 28.0943 20.4157 28.2139 20.4157 28.2139C20.4157 28.2139 20.8461 28.0068 20.8882 28.0456C20.927 28.0845 20.8946 28.3336 20.9366 28.3725C20.9793 28.4016 21.4642 28.1136 21.5937 28.0326H21.5926Z" fill="#ECD592"/>
<path fill-rule="evenodd" clip-rule="evenodd" d="M31.0003 15.081C28.9776 9.85777 23.9775 8.89014 23.9775 8.89014H9.71219L9.76719 14.2105H12.6082V26.0908H9.71191V31.4015H23.5826C26.9255 31.4015 29.6053 28.0421 29.6053 28.0421C33.8965 21.9517 31.0003 15.081 31.0003 15.081ZM23.6571 24.4629C23.6571 24.4629 22.5691 26.0326 21.3853 26.0326H19.0173L18.9612 14.2235H22.0002C22.0002 14.2235 23.4082 14.5179 24.3918 17.3042C24.3918 17.3042 25.6959 21.2936 23.6571 24.4629Z" fill="white" fill-opacity="0.8"/>
</g>
</g>
<defs>
<clipPath id="clip0_86_1538">
<rect width="40" height="40" fill="white"/>
</clipPath>
</defs>
</svg>
