<svg width="40" height="40" viewBox="0 0 40 40" fill="none" xmlns="http://www.w3.org/2000/svg">
<path d="M29.3522 13.4155C28.6875 13.0357 27.8331 13.0357 27.0735 13.4155L21.7566 16.5487L18.1487 18.5425L12.9268 21.6756C12.2622 22.0554 11.4077 22.0554 10.6482 21.6756L6.56557 19.207C5.90096 18.8273 5.42624 18.0678 5.42624 17.2132V12.466C5.42624 11.7065 5.80601 10.947 6.56557 10.4722L10.6482 8.09861C11.3128 7.71883 12.1673 7.71883 12.9268 8.09861L17.0094 10.5671C17.6741 10.947 18.1487 11.7065 18.1487 12.561V15.6941L21.7566 13.6054V10.3772C21.7566 9.61768 21.3769 8.85817 20.6174 8.38344L13.0218 3.92107C12.3572 3.54129 11.5026 3.54129 10.7431 3.92107L2.95769 8.47838C2.19813 8.85817 1.81836 9.61768 1.81836 10.3772V19.302C1.81836 20.0616 2.19813 20.8211 2.95769 21.2959L10.6482 25.7582C11.3128 26.138 12.1673 26.138 12.9268 25.7582L18.1487 22.72L21.7566 20.6312L26.9785 17.593C27.6432 17.2132 28.4977 17.2132 29.2573 17.593L33.3398 19.9666C34.0044 20.3464 34.4792 21.106 34.4792 21.9605V26.7077C34.4792 27.4672 34.0994 28.2268 33.3398 28.7015L29.3522 31.0751C28.6875 31.4549 27.8331 31.4549 27.0735 31.0751L22.9909 28.7015C22.3263 28.3217 21.8516 27.5621 21.8516 26.7077V23.6695L18.2437 25.7582V28.8914C18.2437 29.651 18.6234 30.4105 19.383 30.8852L27.0735 35.3476C27.7381 35.7274 28.5926 35.7274 29.3522 35.3476L37.0426 30.8852C37.7073 30.5054 38.182 29.7459 38.182 28.8914V19.8717C38.182 19.1121 37.8022 18.3526 37.0426 17.8779L29.3522 13.4155Z" fill="#8247E5"/>
</svg>
