<svg width="24" height="24" viewBox="0 0 24 24" fill="none" xmlns="http://www.w3.org/2000/svg">
<g clip-path="url(#clip0_26_46)">
<mask id="mask0_26_46" style="mask-type:luminance" maskUnits="userSpaceOnUse" x="0" y="0" width="24" height="24">
<path d="M24 0H0V24H24V0Z" fill="white"/>
</mask>
<g mask="url(#mask0_26_46)">
<path d="M12 24C18.65 24 24 18.65 24 12C24 5.34996 18.65 0 12 0C5.34996 0 0 5.34996 0 12C0 18.65 5.34996 24 12 24Z" fill="#50AF95"/>
<path fill-rule="evenodd" clip-rule="evenodd" d="M13.5184 13.3938C13.4335 13.4002 12.9951 13.4263 12.0173 13.4263C11.2395 13.4263 10.6873 13.403 10.4935 13.3938C7.4878 13.2616 5.24427 12.7384 5.24427 12.1119C5.24427 11.4854 7.4878 10.9629 10.4935 10.8286V12.8727C10.6901 12.8868 11.2529 12.9201 12.0307 12.9201C12.964 12.9201 13.4314 12.8812 13.5155 12.8734V10.83C16.5149 10.9636 18.7535 11.4868 18.7535 12.1119C18.7535 12.7369 16.5156 13.2602 13.5155 13.3931L13.5184 13.3938ZM13.5184 10.6186V8.78938H17.7042V6H6.3077V8.78938H10.4928V10.6179C7.09113 10.7741 4.53296 11.448 4.53296 12.2554C4.53296 13.0629 7.09113 13.736 10.4928 13.893V19.7546H13.5177V13.8909C16.9116 13.7346 19.4655 13.0615 19.4655 12.2547C19.4655 11.448 16.9144 10.7755 13.5184 10.6186Z" fill="white"/>
</g>
</g>
<defs>
<clipPath id="clip0_26_46">
<rect width="24" height="24" fill="white"/>
</clipPath>
</defs>
</svg>
