<svg width="24" height="24" viewBox="0 0 24 24" fill="none" xmlns="http://www.w3.org/2000/svg">
<circle cx="12" cy="12" r="12" fill="white"/>
<g clip-path="url(#clip0_103_500)">
<path d="M16.9493 6H18.9727L14.7618 10.1694C13.2368 11.6785 10.7644 11.6785 9.23833 10.1694L5.02576 6H7.05083L10.2501 9.16723C10.7162 9.62663 11.3444 9.88416 11.9988 9.88416C12.6533 9.88416 13.2815 9.62663 13.7476 9.16723L16.9493 6Z" fill="#23292F"/>
<path d="M7.0248 17.5938H5L9.23828 13.3987C10.7632 11.8896 13.2357 11.8896 14.7617 13.3987L19 17.5938H16.9766L13.75 14.4008C13.2839 13.9414 12.6557 13.6839 12.0012 13.6839C11.3468 13.6839 10.7186 13.9414 10.2525 14.4008L7.0248 17.5938Z" fill="#23292F"/>
</g>
<defs>
<clipPath id="clip0_103_500">
<rect width="14" height="11.5938" fill="white" transform="translate(5 6)"/>
</clipPath>
</defs>
</svg>
