<svg width="109" height="24" viewBox="0 0 109 24" fill="none" xmlns="http://www.w3.org/2000/svg">
<path d="M94.1855 23.756V7.41042H98.272V9.51462H98.9733L97.662 11.0699C97.8857 10.216 98.277 9.49937 98.8361 8.91995C99.3952 8.34054 100.061 7.90343 100.834 7.60864C101.616 7.31385 102.45 7.16646 103.334 7.16646C104.503 7.16646 105.489 7.43584 106.292 7.97459C107.105 8.50318 107.72 9.21474 108.137 10.1093C108.554 11.0038 108.762 12.0051 108.762 13.1131V23.756H104.554V14.028C104.554 12.9403 104.285 12.122 103.746 11.5731C103.217 11.014 102.501 10.7344 101.596 10.7344C100.996 10.7344 100.452 10.8615 99.9645 11.1156C99.4765 11.3698 99.0902 11.7459 98.8056 12.244C98.5312 12.7319 98.3939 13.3367 98.3939 14.0585V23.756H94.1855Z" fill="#E84142"/>
<path d="M86.5159 23.756V7.42567H90.7243V23.756H86.5159ZM88.6049 5.35197C87.8628 5.35197 87.2326 5.09276 86.7142 4.57433C86.1957 4.04574 85.9365 3.41042 85.9365 2.66836C85.9365 1.91614 86.1957 1.2859 86.7142 0.777637C87.2326 0.259212 87.8628 0 88.6049 0C89.3571 0 89.9873 0.259212 90.4956 0.777637C91.014 1.2859 91.2732 1.91614 91.2732 2.66836C91.2732 3.41042 91.014 4.04574 90.4956 4.57433C89.9873 5.09276 89.3571 5.35197 88.6049 5.35197Z" fill="#E84142"/>
<path d="M75.4916 24C73.9364 24 72.5234 23.6442 71.2528 22.9327C69.9923 22.2109 68.9859 21.2147 68.2337 19.9441C67.4916 18.6734 67.1206 17.2097 67.1206 15.5527C67.1206 13.8958 67.4916 12.4422 68.2337 11.1919C68.9859 9.93138 69.9923 8.95044 71.2528 8.24905C72.5234 7.53748 73.9364 7.1817 75.4916 7.1817C77.0774 7.1817 78.5005 7.53748 79.761 8.24905C81.0215 8.95044 82.0177 9.93138 82.7496 11.1919C83.4916 12.4422 83.8627 13.8958 83.8627 15.5527C83.8627 17.2097 83.4916 18.6734 82.7496 19.9441C82.0075 21.2147 81.0062 22.2109 79.7458 22.9327C78.4853 23.6442 77.0672 24 75.4916 24ZM75.4916 20.3558C76.315 20.3558 77.052 20.1576 77.7026 19.7611C78.3531 19.3545 78.8665 18.7903 79.2426 18.0686C79.6187 17.3469 79.8068 16.5083 79.8068 15.5527C79.8068 14.6175 79.6238 13.7992 79.2578 13.0978C78.8919 12.3863 78.3836 11.8323 77.7331 11.4358C77.0927 11.0292 76.3506 10.8259 75.5069 10.8259C74.6835 10.8259 73.9465 11.0241 73.296 11.4206C72.6454 11.8069 72.132 12.3558 71.7559 13.0673C71.3798 13.7789 71.1918 14.6074 71.1918 15.5527C71.1918 16.5083 71.3798 17.3469 71.7559 18.0686C72.132 18.7903 72.6403 19.3545 73.2807 19.7611C73.9313 20.1576 74.6683 20.3558 75.4916 20.3558Z" fill="#E84142"/>
<path d="M59.0852 24C57.4486 24 55.9086 23.7154 54.4652 23.1461C53.0217 22.5667 51.746 21.7586 50.638 20.7217C49.5401 19.6849 48.6761 18.4651 48.0458 17.0623C47.4258 15.6595 47.1157 14.1347 47.1157 12.4879C47.1157 10.831 47.4258 9.30623 48.0458 7.9136C48.6761 6.5108 49.535 5.29606 50.6227 4.26938C51.7206 3.2427 52.9861 2.44981 54.4194 1.89073C55.8527 1.32148 57.3775 1.03685 58.9937 1.03685C60.1932 1.03685 61.3826 1.19949 62.5617 1.52478C63.751 1.8399 64.8387 2.32275 65.8247 2.97332L64.178 6.8615C63.5986 6.29225 62.8514 5.84498 61.9366 5.5197C61.0319 5.18425 60.0712 5.01652 59.0547 5.01652C58.0687 5.01652 57.1233 5.19441 56.2186 5.55019C55.3139 5.90597 54.5058 6.41423 53.7942 7.07497C53.0827 7.73571 52.5185 8.52351 52.1017 9.43838C51.685 10.3431 51.4766 11.3494 51.4766 12.4574C51.4766 13.5451 51.6748 14.5515 52.0712 15.4765C52.4779 16.3914 53.0319 17.1893 53.7333 17.8704C54.4448 18.5515 55.2631 19.0801 56.1881 19.4562C57.1132 19.8323 58.1043 20.0203 59.1615 20.0203C59.7714 20.0203 60.3915 19.9543 61.0217 19.8221C61.6621 19.6798 62.2618 19.4714 62.8209 19.197C63.38 18.9225 63.8527 18.582 64.239 18.1754L65.8857 22.0483C64.92 22.6887 63.8375 23.1766 62.638 23.5121C61.4385 23.8374 60.2542 24 59.0852 24Z" fill="#E84142"/>
<path d="M41.7942 23.756L38.333 18.3126H38.15L35.6494 15.5985V15.507L30.2517 7.42567H34.6583L38.211 13.0978H38.3635L40.8946 15.5527V15.629L46.3228 23.756H41.7942ZM30.1907 23.756L35.6494 15.629V15.5527L38.1958 13.0978H38.333L41.8857 7.42567H46.3381L40.8946 15.507V15.5985L38.394 18.3126H38.211L34.7498 23.756H30.1907Z" fill="white"/>
<path d="M23.9085 23.756V7.42567H28.1169V23.756H23.9085ZM25.9975 5.35197C25.2554 5.35197 24.6252 5.09276 24.1067 4.57433C23.5883 4.04574 23.3291 3.41042 23.3291 2.66836C23.3291 1.91614 23.5883 1.2859 24.1067 0.777637C24.6252 0.259212 25.2554 0 25.9975 0C26.7497 0 27.3799 0.259212 27.8882 0.777637C28.4066 1.2859 28.6658 1.91614 28.6658 2.66836C28.6658 3.41042 28.4066 4.04574 27.8882 4.57433C27.3799 5.09276 26.7497 5.35197 25.9975 5.35197Z" fill="white"/>
<path d="M19.3953 24C18.4804 24 17.7231 23.8069 17.1233 23.4206C16.5338 23.0241 16.0865 22.4905 15.7815 21.8196C15.4868 21.1487 15.3394 20.3863 15.3394 19.5324V0.27446H19.5477V19.0292C19.5477 19.2732 19.5732 19.5019 19.624 19.7154C19.685 19.9187 19.7917 20.0864 19.9442 20.2186C20.1068 20.3405 20.3406 20.4015 20.6456 20.4015C20.7981 20.4015 20.9302 20.3914 21.042 20.371C21.1538 20.3405 21.2555 20.31 21.347 20.2795V23.6798C21.0827 23.7713 20.7777 23.8475 20.4321 23.9085C20.0865 23.9695 19.7409 24 19.3953 24Z" fill="white"/>
<path d="M0 23.756V1.28082H12.8081V5.19949H4.36086V11.0394H11.4511V14.9581H4.36086V23.756H0Z" fill="white"/>
</svg>
