<svg width="24" height="24" viewBox="0 0 24 24" fill="none" xmlns="http://www.w3.org/2000/svg">
<circle cx="12" cy="12" r="12" fill="#FFC800"/>
<g clip-path="url(#clip0_319_31)">
<path d="M15.9166 8.66667C15.7508 8.19603 15.4479 7.7858 15.0469 7.48878C14.6459 7.19176 14.1652 7.02153 13.6666 7H10.3333C9.67027 7 9.03439 7.26339 8.56555 7.73223C8.09671 8.20107 7.83331 8.83696 7.83331 9.5C7.83331 10.163 8.09671 10.7989 8.56555 11.2678C9.03439 11.7366 9.67027 12 10.3333 12H13.6666C14.3297 12 14.9656 12.2634 15.4344 12.7322C15.9033 13.2011 16.1666 13.837 16.1666 14.5C16.1666 15.163 15.9033 15.7989 15.4344 16.2678C14.9656 16.7366 14.3297 17 13.6666 17H10.3333C9.83477 16.9785 9.35407 16.8082 8.95309 16.5112C8.5521 16.2142 8.24919 15.804 8.08331 15.3333" stroke="#141414" stroke-width="2" stroke-linecap="round" stroke-linejoin="round"/>
<path d="M12 4.5V7M12 17V19.5" stroke="#141414" stroke-width="2" stroke-linecap="round" stroke-linejoin="round"/>
</g>
<defs>
<clipPath id="clip0_319_31">
<rect width="20" height="20" fill="white" transform="translate(2 2)"/>
</clipPath>
</defs>
</svg>
