<svg width="24" height="24" viewBox="0 0 24 24" fill="none" xmlns="http://www.w3.org/2000/svg">
<circle cx="12" cy="12" r="12" fill="#279904"/>
<g clip-path="url(#clip0_319_37)">
<path d="M19.5 7H16.1667C15.5036 7 14.8678 7.26339 14.3989 7.73223C13.9301 8.20107 13.6667 8.83696 13.6667 9.5C13.6667 10.163 13.9301 10.7989 14.3989 11.2678C14.8678 11.7366 15.5036 12 16.1667 12H17C17.6631 12 18.2989 12.2634 18.7678 12.7322C19.2366 13.2011 19.5 13.837 19.5 14.5C19.5 15.163 19.2366 15.7989 18.7678 16.2678C18.2989 16.7366 17.6631 17 17 17H13.6667" stroke="#141414" stroke-width="2" stroke-linecap="round" stroke-linejoin="round"/>
<path d="M5.33331 17V7H7.83331C8.49635 7 9.13224 7.26339 9.60108 7.73223C10.0699 8.20107 10.3333 8.83696 10.3333 9.5C10.3333 10.163 10.0699 10.7989 9.60108 11.2678C9.13224 11.7366 8.49635 12 7.83331 12H5.33331C9.91665 12 9.49998 15.3333 10.3333 17" stroke="#141414" stroke-width="2" stroke-linecap="round" stroke-linejoin="round"/>
<path d="M17 7.00001V5.33334" stroke="#141414" stroke-width="2" stroke-linecap="round" stroke-linejoin="round"/>
<path d="M16.1667 18.6667V17" stroke="#141414" stroke-width="2" stroke-linecap="round" stroke-linejoin="round"/>
</g>
<defs>
<clipPath id="clip0_319_37">
<rect width="20" height="20" fill="white" transform="translate(2 2)"/>
</clipPath>
</defs>
</svg>
