<svg width="24" height="24" viewBox="0 0 24 24" fill="none" xmlns="http://www.w3.org/2000/svg">
<circle cx="12" cy="12" r="12" fill="#EDF6FF"/>
<path d="M4.34752 16V6.13H8.85552C9.95685 6.13 10.8062 6.396 11.4035 6.928C12.0008 7.46 12.2995 8.202 12.2995 9.154C12.2995 9.89133 12.1082 10.5073 11.7255 11.002C11.3522 11.4873 10.8155 11.8187 10.1155 11.996C10.6102 12.1453 11.0162 12.5047 11.3335 13.074L12.9295 16H10.5355L8.82752 12.85C8.68752 12.598 8.51485 12.4253 8.30952 12.332C8.10418 12.2293 7.86152 12.178 7.58152 12.178H6.51752V16H4.34752ZM6.51752 10.61H8.46352C9.63018 10.61 10.2135 10.1433 10.2135 9.21C10.2135 8.286 9.63018 7.824 8.46352 7.824H6.51752V10.61ZM13.9136 18.52V9.126H15.9856V10.148C16.1722 9.79333 16.4569 9.51333 16.8396 9.308C17.2316 9.09333 17.6702 8.986 18.1556 8.986C18.7529 8.986 19.2756 9.13067 19.7236 9.42C20.1809 9.70933 20.5356 10.12 20.7876 10.652C21.0396 11.184 21.1656 11.8187 21.1656 12.556C21.1656 13.2933 21.0396 13.9327 20.7876 14.474C20.5356 15.006 20.1809 15.4213 19.7236 15.72C19.2756 16.0093 18.7529 16.154 18.1556 16.154C17.6982 16.154 17.2782 16.056 16.8956 15.86C16.5222 15.664 16.2329 15.4027 16.0276 15.076V18.52H13.9136ZM17.5256 14.572C17.9736 14.572 18.3376 14.4087 18.6176 14.082C18.8976 13.7553 19.0376 13.2467 19.0376 12.556C19.0376 11.8747 18.8976 11.3753 18.6176 11.058C18.3376 10.7313 17.9736 10.568 17.5256 10.568C17.0682 10.568 16.6996 10.7313 16.4196 11.058C16.1396 11.3753 15.9996 11.8747 15.9996 12.556C15.9996 13.2467 16.1396 13.7553 16.4196 14.082C16.6996 14.4087 17.0682 14.572 17.5256 14.572Z" fill="#141414"/>
</svg>
