<svg width="24" height="24" viewBox="0 0 24 24" fill="none" xmlns="http://www.w3.org/2000/svg">
<circle cx="12" cy="12" r="12" fill="#EB0A29"/>
<path d="M8.58548 17.154C7.81081 17.154 7.07814 17.056 6.38748 16.86C5.70614 16.664 5.13681 16.398 4.67948 16.062L5.30948 14.354C5.74814 14.662 6.24748 14.9047 6.80748 15.082C7.37681 15.2593 7.96948 15.348 8.58548 15.348C9.25748 15.348 9.73814 15.2453 10.0275 15.04C10.3261 14.8253 10.4755 14.5593 10.4755 14.242C10.4755 13.9713 10.3728 13.7567 10.1675 13.598C9.96214 13.4393 9.60281 13.304 9.08948 13.192L7.50748 12.856C5.74348 12.4827 4.86148 11.568 4.86148 10.112C4.86148 9.48667 5.02948 8.94067 5.36548 8.474C5.70148 7.998 6.16814 7.62933 6.76548 7.368C7.37214 7.10667 8.07214 6.976 8.86548 6.976C9.54681 6.976 10.1861 7.074 10.7835 7.27C11.3808 7.466 11.8755 7.74133 12.2675 8.096L11.6375 9.692C10.8721 9.08533 9.94348 8.782 8.85148 8.782C8.26348 8.782 7.80614 8.89867 7.47948 9.132C7.16214 9.356 7.00348 9.65 7.00348 10.014C7.00348 10.2847 7.10148 10.504 7.29748 10.672C7.49348 10.84 7.83414 10.9753 8.31948 11.078L9.90148 11.414C11.7121 11.806 12.6175 12.6927 12.6175 14.074C12.6175 14.69 12.4495 15.2313 12.1135 15.698C11.7868 16.1553 11.3201 16.5147 10.7135 16.776C10.1161 17.028 9.40681 17.154 8.58548 17.154ZM14.3746 18.064L12.8206 17.602L16.4606 6.29L18.0146 6.752L14.3746 18.064ZM16.9858 17V14.76H19.2538V17H16.9858Z" fill="#141414"/>
</svg>
