<svg width="24" height="24" viewBox="0 0 24 24" fill="none" xmlns="http://www.w3.org/2000/svg">
<circle cx="12" cy="12" r="12" fill="#0F97F8"/>
<g clip-path="url(#clip0_319_79)">
<path d="M8.66669 17.8333V6.16666H11.5834C12.0758 6.16666 12.5634 6.26365 13.0184 6.45211C13.4734 6.64056 13.8868 6.91679 14.235 7.26501C14.5832 7.61323 14.8594 8.02662 15.0479 8.48159C15.2364 8.93656 15.3334 9.4242 15.3334 9.91666C15.3334 10.4091 15.2364 10.8967 15.0479 11.3517C14.8594 11.8067 14.5832 12.2201 14.235 12.5683C13.8868 12.9165 13.4734 13.1928 13.0184 13.3812C12.5634 13.5697 12.0758 13.6667 11.5834 13.6667H8.66669" stroke="#141414" stroke-width="2" stroke-linecap="round" stroke-linejoin="round"/>
<path d="M17 8.66666H7" stroke="#141414" stroke-width="2" stroke-linecap="round" stroke-linejoin="round"/>
<path d="M17 11.1667H7" stroke="#141414" stroke-width="2" stroke-linecap="round" stroke-linejoin="round"/>
</g>
<defs>
<clipPath id="clip0_319_79">
<rect width="20" height="20" fill="white" transform="translate(2 2)"/>
</clipPath>
</defs>
</svg>
