<svg width="24" height="24" viewBox="0 0 24 24" fill="none" xmlns="http://www.w3.org/2000/svg">
<circle cx="12" cy="12" r="12" fill="#0057B7"/>
<path d="M11.9901 19.3392C10.6489 19.3392 9.59698 19.0763 8.83432 18.5503C8.08481 18.0112 7.71006 17.2748 7.71006 16.3412C7.71006 16.0914 7.74293 15.8284 7.80868 15.5523C7.88757 15.263 8.02564 14.9671 8.22288 14.6647H7V12.7712H9.68245L11.0039 11.5483H7V9.65483H12.8777C13.0618 9.44444 13.1867 9.24721 13.2525 9.06312C13.3314 8.86588 13.3708 8.66206 13.3708 8.45168C13.3708 7.78106 12.8251 7.44576 11.7337 7.44576C11.2867 7.44576 10.8001 7.5378 10.2742 7.72189C9.74819 7.89283 9.23537 8.16897 8.7357 8.5503L7.86785 6.43984C8.52531 5.97962 9.28139 5.62459 10.1361 5.37475C10.9908 5.12492 11.8586 5 12.7396 5C13.9625 5 14.8961 5.23669 15.5404 5.71006C16.1979 6.17028 16.5266 6.84747 16.5266 7.74162C16.5266 8.0835 16.4806 8.41223 16.3886 8.72781C16.2965 9.03024 16.1387 9.33925 15.9152 9.65483H16.9803V11.5483H14.1598L12.8777 12.7712H16.9803V14.6647H11.1223C10.925 14.9671 10.8264 15.3024 10.8264 15.6706C10.8264 16.0256 10.9842 16.3149 11.2998 16.5385C11.6285 16.762 12.1151 16.8738 12.7594 16.8738C13.3511 16.8738 13.9362 16.7686 14.5148 16.5582C15.0934 16.3346 15.593 16.0388 16.0138 15.6706L17 17.8008C15.7245 18.8264 14.0546 19.3392 11.9901 19.3392Z" fill="#141414"/>
</svg>
