<svg width="24" height="24" viewBox="0 0 24 24" fill="none" xmlns="http://www.w3.org/2000/svg">
<circle cx="12" cy="12" r="12" fill="#1AAA67"/>
<g clip-path="url(#clip0_319_6)">
<path d="M15.9167 8.66667C15.7508 8.19603 15.4479 7.7858 15.0469 7.48878C14.6459 7.19176 14.1652 7.02153 13.6667 7H10.3333C9.6703 7 9.03442 7.26339 8.56558 7.73223C8.09674 8.20107 7.83334 8.83696 7.83334 9.5C7.83334 10.163 8.09674 10.7989 8.56558 11.2678C9.03442 11.7366 9.6703 12 10.3333 12H13.6667C14.3297 12 14.9656 12.2634 15.4344 12.7322C15.9033 13.2011 16.1667 13.837 16.1667 14.5C16.1667 15.163 15.9033 15.7989 15.4344 16.2678C14.9656 16.7366 14.3297 17 13.6667 17H10.3333C9.8348 16.9785 9.3541 16.8082 8.95312 16.5112C8.55214 16.2142 8.24922 15.804 8.08334 15.3333" stroke="#141414" stroke-width="2" stroke-linecap="round" stroke-linejoin="round"/>
<path d="M12 4.5V7M12 17V19.5" stroke="#141414" stroke-width="2" stroke-linecap="round" stroke-linejoin="round"/>
</g>
<defs>
<clipPath id="clip0_319_6">
<rect width="20" height="20" fill="white" transform="translate(2 2)"/>
</clipPath>
</defs>
</svg>
