<svg width="85" height="20" viewBox="0 0 85 20" fill="none" xmlns="http://www.w3.org/2000/svg">
<path d="M73.0859 19V6.4375H76.2266V8.05469H76.7656L75.7578 9.25C75.9297 8.59375 76.2305 8.04297 76.6602 7.59766C77.0898 7.15234 77.6016 6.81641 78.1953 6.58984C78.7969 6.36328 79.4375 6.25 80.1172 6.25C81.0156 6.25 81.7734 6.45703 82.3906 6.87109C83.0156 7.27734 83.4883 7.82422 83.8086 8.51172C84.1289 9.19922 84.2891 9.96875 84.2891 10.8203V19H81.0547V11.5234C81.0547 10.6875 80.8477 10.0586 80.4336 9.63672C80.0273 9.20703 79.4766 8.99219 78.7812 8.99219C78.3203 8.99219 77.9023 9.08984 77.5273 9.28516C77.1523 9.48047 76.8555 9.76953 76.6367 10.1523C76.4258 10.5273 76.3203 10.9922 76.3203 11.5469V19H73.0859Z" fill="#E84142"/>
<path d="M67.1914 19V6.44922H70.4258V19H67.1914ZM68.7969 4.85547C68.2266 4.85547 67.7422 4.65625 67.3438 4.25781C66.9453 3.85156 66.7461 3.36328 66.7461 2.79297C66.7461 2.21484 66.9453 1.73047 67.3438 1.33984C67.7422 0.941406 68.2266 0.742188 68.7969 0.742188C69.375 0.742188 69.8594 0.941406 70.25 1.33984C70.6484 1.73047 70.8477 2.21484 70.8477 2.79297C70.8477 3.36328 70.6484 3.85156 70.25 4.25781C69.8594 4.65625 69.375 4.85547 68.7969 4.85547Z" fill="#E84142"/>
<path d="M58.7188 19.1875C57.5234 19.1875 56.4375 18.9141 55.4609 18.3672C54.4922 17.8125 53.7188 17.0469 53.1406 16.0703C52.5703 15.0938 52.2852 13.9688 52.2852 12.6953C52.2852 11.4219 52.5703 10.3047 53.1406 9.34375C53.7188 8.375 54.4922 7.62109 55.4609 7.08203C56.4375 6.53516 57.5234 6.26172 58.7188 6.26172C59.9375 6.26172 61.0312 6.53516 62 7.08203C62.9688 7.62109 63.7344 8.375 64.2969 9.34375C64.8672 10.3047 65.1523 11.4219 65.1523 12.6953C65.1523 13.9688 64.8672 15.0938 64.2969 16.0703C63.7266 17.0469 62.957 17.8125 61.9883 18.3672C61.0195 18.9141 59.9297 19.1875 58.7188 19.1875ZM58.7188 16.3867C59.3516 16.3867 59.918 16.2344 60.418 15.9297C60.918 15.6172 61.3125 15.1836 61.6016 14.6289C61.8906 14.0742 62.0352 13.4297 62.0352 12.6953C62.0352 11.9766 61.8945 11.3477 61.6133 10.8086C61.332 10.2617 60.9414 9.83594 60.4414 9.53125C59.9492 9.21875 59.3789 9.0625 58.7305 9.0625C58.0977 9.0625 57.5312 9.21484 57.0312 9.51953C56.5312 9.81641 56.1367 10.2383 55.8477 10.7852C55.5586 11.332 55.4141 11.9688 55.4141 12.6953C55.4141 13.4297 55.5586 14.0742 55.8477 14.6289C56.1367 15.1836 56.5273 15.6172 57.0195 15.9297C57.5195 16.2344 58.0859 16.3867 58.7188 16.3867Z" fill="#E84142"/>
<path d="M46.1094 19.1875C44.8516 19.1875 43.668 18.9688 42.5586 18.5312C41.4492 18.0859 40.4688 17.4648 39.6172 16.668C38.7734 15.8711 38.1094 14.9336 37.625 13.8555C37.1484 12.7773 36.9102 11.6055 36.9102 10.3398C36.9102 9.06641 37.1484 7.89453 37.625 6.82422C38.1094 5.74609 38.7695 4.8125 39.6055 4.02344C40.4492 3.23438 41.4219 2.625 42.5234 2.19531C43.625 1.75781 44.7969 1.53906 46.0391 1.53906C46.9609 1.53906 47.875 1.66406 48.7812 1.91406C49.6953 2.15625 50.5312 2.52734 51.2891 3.02734L50.0234 6.01562C49.5781 5.57812 49.0039 5.23438 48.3008 4.98438C47.6055 4.72656 46.8672 4.59766 46.0859 4.59766C45.3281 4.59766 44.6016 4.73438 43.9062 5.00781C43.2109 5.28125 42.5898 5.67188 42.043 6.17969C41.4961 6.6875 41.0625 7.29297 40.7422 7.99609C40.4219 8.69141 40.2617 9.46484 40.2617 10.3164C40.2617 11.1523 40.4141 11.9258 40.7188 12.6367C41.0312 13.3398 41.457 13.9531 41.9961 14.4766C42.543 15 43.1719 15.4062 43.8828 15.6953C44.5938 15.9844 45.3555 16.1289 46.168 16.1289C46.6367 16.1289 47.1133 16.0781 47.5977 15.9766C48.0898 15.8672 48.5508 15.707 48.9805 15.4961C49.4102 15.2852 49.7734 15.0234 50.0703 14.7109L51.3359 17.6875C50.5938 18.1797 49.7617 18.5547 48.8398 18.8125C47.918 19.0625 47.0078 19.1875 46.1094 19.1875Z" fill="#E84142"/>
<path d="M32.8203 19L30.1602 14.8164H30.0195L28.0977 12.7305V12.6602L23.9492 6.44922H27.3359L30.0664 10.8086H30.1836L32.1289 12.6953V12.7539L36.3008 19H32.8203ZM23.9023 19L28.0977 12.7539V12.6953L30.0547 10.8086H30.1602L32.8906 6.44922H36.3125L32.1289 12.6602V12.7305L30.207 14.8164H30.0664L27.4062 19H23.9023Z" fill="white"/>
<path d="M19.0742 19V6.44922H22.3086V19H19.0742ZM20.6797 4.85547C20.1094 4.85547 19.625 4.65625 19.2266 4.25781C18.8281 3.85156 18.6289 3.36328 18.6289 2.79297C18.6289 2.21484 18.8281 1.73047 19.2266 1.33984C19.625 0.941406 20.1094 0.742188 20.6797 0.742188C21.2578 0.742188 21.7422 0.941406 22.1328 1.33984C22.5312 1.73047 22.7305 2.21484 22.7305 2.79297C22.7305 3.36328 22.5312 3.85156 22.1328 4.25781C21.7422 4.65625 21.2578 4.85547 20.6797 4.85547Z" fill="white"/>
<path d="M15.6055 19.1875C14.9023 19.1875 14.3203 19.0391 13.8594 18.7422C13.4062 18.4375 13.0625 18.0273 12.8281 17.5117C12.6016 16.9961 12.4883 16.4102 12.4883 15.7539V0.953125H15.7227V15.3672C15.7227 15.5547 15.7422 15.7305 15.7812 15.8945C15.8281 16.0508 15.9102 16.1797 16.0273 16.2812C16.1523 16.375 16.332 16.4219 16.5664 16.4219C16.6836 16.4219 16.7852 16.4141 16.8711 16.3984C16.957 16.375 17.0352 16.3516 17.1055 16.3281V18.9414C16.9023 19.0117 16.668 19.0703 16.4023 19.1172C16.1367 19.1641 15.8711 19.1875 15.6055 19.1875Z" fill="white"/>
<path d="M0.699219 19V1.72656H10.543V4.73828H4.05078V9.22656H9.5V12.2383H4.05078V19H0.699219Z" fill="white"/>
</svg>
